M48
; DRILL file {KiCad 7.0.7} date Fri Oct  6 16:16:08 2023
; FORMAT={-:-/ absolute / metric / decimal}
; #@! TF.CreationDate,2023-10-06T16:16:08-07:00
; #@! TF.GenerationSoftware,Kicad,Pcbnew,7.0.7
; #@! TF.FileFunction,Plated,1,2,PTH
FMAT,2
METRIC
; #@! TA.AperFunction,Plated,PTH,ComponentDrill
T1C1.200
; #@! TA.AperFunction,Plated,PTH,ComponentDrill
T2C5.500
%
G90
G05
T1
X263.25Y-82.755
X267.21Y-82.755
X271.17Y-82.755
X275.13Y-82.755
X279.09Y-82.755
X283.05Y-82.755
X287.01Y-82.755
X290.97Y-82.755
X294.93Y-82.755
X298.89Y-82.755
X302.85Y-82.755
X306.81Y-82.725
X310.77Y-82.725
X314.73Y-82.725
X318.69Y-82.725
X322.65Y-82.725
X326.61Y-82.725
X330.57Y-82.725
X334.53Y-82.725
X338.49Y-82.725
X342.45Y-82.725
X346.41Y-82.725
X350.37Y-82.725
X354.33Y-82.725
X358.29Y-82.725
X362.25Y-82.725
X366.21Y-82.725
X370.17Y-82.725
X374.13Y-82.725
X378.09Y-82.725
T2
X254.91Y-94.59
T0
M30
