%TF.GenerationSoftware,KiCad,Pcbnew,7.0.7*%
%TF.CreationDate,2023-10-06T16:16:01-07:00*%
%TF.ProjectId,XTay,58546179-2e6b-4696-9361-645f70636258,rev?*%
%TF.SameCoordinates,Original*%
%TF.FileFunction,Copper,L1,Top*%
%TF.FilePolarity,Positive*%
%FSLAX46Y46*%
G04 Gerber Fmt 4.6, Leading zero omitted, Abs format (unit mm)*
G04 Created by KiCad (PCBNEW 7.0.7) date 2023-10-06 16:16:01*
%MOMM*%
%LPD*%
G01*
G04 APERTURE LIST*
G04 Aperture macros list*
%AMRoundRect*
0 Rectangle with rounded corners*
0 $1 Rounding radius*
0 $2 $3 $4 $5 $6 $7 $8 $9 X,Y pos of 4 corners*
0 Add a 4 corners polygon primitive as box body*
4,1,4,$2,$3,$4,$5,$6,$7,$8,$9,$2,$3,0*
0 Add four circle primitives for the rounded corners*
1,1,$1+$1,$2,$3*
1,1,$1+$1,$4,$5*
1,1,$1+$1,$6,$7*
1,1,$1+$1,$8,$9*
0 Add four rect primitives between the rounded corners*
20,1,$1+$1,$2,$3,$4,$5,0*
20,1,$1+$1,$4,$5,$6,$7,0*
20,1,$1+$1,$6,$7,$8,$9,0*
20,1,$1+$1,$8,$9,$2,$3,0*%
G04 Aperture macros list end*
%TA.AperFunction,SMDPad,CuDef*%
%ADD10R,7.112000X12.700000*%
%TD*%
%TA.AperFunction,SMDPad,CuDef*%
%ADD11R,6.350000X12.700000*%
%TD*%
%TA.AperFunction,SMDPad,CuDef*%
%ADD12C,1.524000*%
%TD*%
%TA.AperFunction,ComponentPad*%
%ADD13RoundRect,1.500000X-5.000000X-3.250000X5.000000X-3.250000X5.000000X3.250000X-5.000000X3.250000X0*%
%TD*%
%TA.AperFunction,SMDPad,CuDef*%
%ADD14R,2.540000X5.334000*%
%TD*%
%TA.AperFunction,SMDPad,CuDef*%
%ADD15R,1.000000X1.000000*%
%TD*%
%TA.AperFunction,ComponentPad*%
%ADD16R,1.800000X1.800000*%
%TD*%
%TA.AperFunction,ComponentPad*%
%ADD17C,1.800000*%
%TD*%
%TA.AperFunction,Conductor*%
%ADD18C,0.254000*%
%TD*%
%TA.AperFunction,Profile*%
%ADD19C,0.100000*%
%TD*%
G04 APERTURE END LIST*
D10*
%TO.P,SW94,REF*%
%TO.N,N/C*%
X403024000Y-150460000D03*
D11*
%TO.P,SW94,ROW,ROW*%
%TO.N,ROW_7*%
X394515000Y-150460000D03*
D12*
%TO.P,SW94,X*%
%TO.N,N/C*%
X392102000Y-142586000D03*
%TO.P,SW94,Y*%
X405818000Y-142586000D03*
%TD*%
D10*
%TO.P,SW90,REF*%
%TO.N,N/C*%
X403024000Y-192320000D03*
D11*
%TO.P,SW90,ROW,ROW*%
%TO.N,ROW_3*%
X394515000Y-192320000D03*
D12*
%TO.P,SW90,X*%
%TO.N,N/C*%
X392102000Y-184446000D03*
%TO.P,SW90,Y*%
X405818000Y-184446000D03*
%TD*%
D10*
%TO.P,SW47,REF*%
%TO.N,N/C*%
X198134000Y-129530000D03*
D11*
%TO.P,SW47,ROW,ROW*%
%TO.N,ROW_7*%
X189625000Y-129530000D03*
D12*
%TO.P,SW47,X*%
%TO.N,N/C*%
X187212000Y-121656000D03*
%TO.P,SW47,Y*%
X200928000Y-121656000D03*
%TD*%
D13*
%TO.P,H1,1,1*%
%TO.N,GND*%
X254910000Y-94590000D03*
%TD*%
D14*
%TO.P,CAL1,ROW,ROW*%
%TO.N,ROW_1*%
X260224000Y-216298000D03*
%TD*%
D10*
%TO.P,SW76,REF*%
%TO.N,N/C*%
X326824000Y-171390000D03*
D11*
%TO.P,SW76,ROW,ROW*%
%TO.N,ROW_5*%
X318315000Y-171390000D03*
D12*
%TO.P,SW76,X*%
%TO.N,N/C*%
X315902000Y-163516000D03*
%TO.P,SW76,Y*%
X329618000Y-163516000D03*
%TD*%
D10*
%TO.P,SW87,REF*%
%TO.N,N/C*%
X366516000Y-129530000D03*
D11*
%TO.P,SW87,ROW,ROW*%
%TO.N,ROW_8*%
X375025000Y-129530000D03*
D12*
%TO.P,SW87,X*%
%TO.N,N/C*%
X377438000Y-121656000D03*
%TO.P,SW87,Y*%
X363722000Y-121656000D03*
%TD*%
D10*
%TO.P,SW71,REF*%
%TO.N,N/C*%
X293384000Y-129530000D03*
D11*
%TO.P,SW71,ROW,ROW*%
%TO.N,ROW_8*%
X284875000Y-129530000D03*
D12*
%TO.P,SW71,X*%
%TO.N,N/C*%
X282462000Y-121656000D03*
%TO.P,SW71,Y*%
X296178000Y-121656000D03*
%TD*%
D10*
%TO.P,SW60,REF*%
%TO.N,N/C*%
X280596000Y-171390000D03*
D11*
%TO.P,SW60,ROW,ROW*%
%TO.N,ROW_5*%
X289105000Y-171390000D03*
D12*
%TO.P,SW60,X*%
%TO.N,N/C*%
X291518000Y-163516000D03*
%TO.P,SW60,Y*%
X277802000Y-163516000D03*
%TD*%
D10*
%TO.P,SW44,REF*%
%TO.N,N/C*%
X223446000Y-171390000D03*
D11*
%TO.P,SW44,ROW,ROW*%
%TO.N,ROW_4*%
X231955000Y-171390000D03*
D12*
%TO.P,SW44,X*%
%TO.N,N/C*%
X234368000Y-163516000D03*
%TO.P,SW44,Y*%
X220652000Y-163516000D03*
%TD*%
D15*
%TO.P,TP8,1,1*%
%TO.N,ROW_8*%
X21000000Y-118770000D03*
%TD*%
D10*
%TO.P,SW64,REF*%
%TO.N,N/C*%
X307774000Y-213250000D03*
D11*
%TO.P,SW64,ROW,ROW*%
%TO.N,ROW_1*%
X299265000Y-213250000D03*
D12*
%TO.P,SW64,X*%
%TO.N,N/C*%
X296852000Y-205376000D03*
%TO.P,SW64,Y*%
X310568000Y-205376000D03*
%TD*%
D10*
%TO.P,SW57,REF*%
%TO.N,N/C*%
X260224000Y-192320000D03*
D11*
%TO.P,SW57,ROW,ROW*%
%TO.N,ROW_2*%
X251715000Y-192320000D03*
D12*
%TO.P,SW57,X*%
%TO.N,N/C*%
X249302000Y-184446000D03*
%TO.P,SW57,Y*%
X263018000Y-184446000D03*
%TD*%
D10*
%TO.P,SW70,REF*%
%TO.N,N/C*%
X304306000Y-129530000D03*
D11*
%TO.P,SW70,ROW,ROW*%
%TO.N,ROW_7*%
X312815000Y-129530000D03*
D12*
%TO.P,SW70,X*%
%TO.N,N/C*%
X315228000Y-121656000D03*
%TO.P,SW70,Y*%
X301512000Y-121656000D03*
%TD*%
D10*
%TO.P,SW2,REF*%
%TO.N,N/C*%
X36904000Y-192320000D03*
D11*
%TO.P,SW2,ROW,ROW*%
%TO.N,ROW_2*%
X28395000Y-192320000D03*
D12*
%TO.P,SW2,X*%
%TO.N,N/C*%
X25982000Y-184446000D03*
%TO.P,SW2,Y*%
X39698000Y-184446000D03*
%TD*%
D10*
%TO.P,SW65,REF*%
%TO.N,N/C*%
X318696000Y-213250000D03*
D11*
%TO.P,SW65,ROW,ROW*%
%TO.N,ROW_2*%
X327205000Y-213250000D03*
D12*
%TO.P,SW65,X*%
%TO.N,N/C*%
X329618000Y-205376000D03*
%TO.P,SW65,Y*%
X315902000Y-205376000D03*
%TD*%
D10*
%TO.P,SW22,REF*%
%TO.N,N/C*%
X112224000Y-150460000D03*
D11*
%TO.P,SW22,ROW,ROW*%
%TO.N,ROW_6*%
X103715000Y-150460000D03*
D12*
%TO.P,SW22,X*%
%TO.N,N/C*%
X101302000Y-142586000D03*
%TO.P,SW22,Y*%
X115018000Y-142586000D03*
%TD*%
D10*
%TO.P,SW29,REF*%
%TO.N,N/C*%
X136324000Y-171390000D03*
D11*
%TO.P,SW29,ROW,ROW*%
%TO.N,ROW_5*%
X127815000Y-171390000D03*
D12*
%TO.P,SW29,X*%
%TO.N,N/C*%
X125402000Y-163516000D03*
%TO.P,SW29,Y*%
X139118000Y-163516000D03*
%TD*%
D10*
%TO.P,SW63,REF*%
%TO.N,N/C*%
X255284000Y-129530000D03*
D11*
%TO.P,SW63,ROW,ROW*%
%TO.N,ROW_8*%
X246775000Y-129530000D03*
D12*
%TO.P,SW63,X*%
%TO.N,N/C*%
X244362000Y-121656000D03*
%TO.P,SW63,Y*%
X258078000Y-121656000D03*
%TD*%
D15*
%TO.P,TP1,1,1*%
%TO.N,ROW_1*%
X21000000Y-222130000D03*
%TD*%
D10*
%TO.P,SW20,REF*%
%TO.N,N/C*%
X107824000Y-192320000D03*
D11*
%TO.P,SW20,ROW,ROW*%
%TO.N,ROW_4*%
X99315000Y-192320000D03*
D12*
%TO.P,SW20,X*%
%TO.N,N/C*%
X96902000Y-184446000D03*
%TO.P,SW20,Y*%
X110618000Y-184446000D03*
%TD*%
D10*
%TO.P,SW10,REF*%
%TO.N,N/C*%
X55954000Y-213250000D03*
D11*
%TO.P,SW10,ROW,ROW*%
%TO.N,ROW_2*%
X47445000Y-213250000D03*
D12*
%TO.P,SW10,X*%
%TO.N,N/C*%
X45032000Y-205376000D03*
%TO.P,SW10,Y*%
X58748000Y-205376000D03*
%TD*%
D10*
%TO.P,SW4,REF*%
%TO.N,N/C*%
X47826000Y-171390000D03*
D11*
%TO.P,SW4,ROW,ROW*%
%TO.N,ROW_4*%
X56335000Y-171390000D03*
D12*
%TO.P,SW4,X*%
%TO.N,N/C*%
X58748000Y-163516000D03*
%TO.P,SW4,Y*%
X45032000Y-163516000D03*
%TD*%
D10*
%TO.P,SW8,REF*%
%TO.N,N/C*%
X47826000Y-129530000D03*
D11*
%TO.P,SW8,ROW,ROW*%
%TO.N,ROW_8*%
X56335000Y-129530000D03*
D12*
%TO.P,SW8,X*%
%TO.N,N/C*%
X58748000Y-121656000D03*
%TO.P,SW8,Y*%
X45032000Y-121656000D03*
%TD*%
D10*
%TO.P,SW82,REF*%
%TO.N,N/C*%
X364924000Y-192320000D03*
D11*
%TO.P,SW82,ROW,ROW*%
%TO.N,ROW_3*%
X356415000Y-192320000D03*
D12*
%TO.P,SW82,X*%
%TO.N,N/C*%
X354002000Y-184446000D03*
%TO.P,SW82,Y*%
X367718000Y-184446000D03*
%TD*%
D10*
%TO.P,SW88,REF*%
%TO.N,N/C*%
X413946000Y-213250000D03*
D11*
%TO.P,SW88,ROW,ROW*%
%TO.N,ROW_1*%
X422455000Y-213250000D03*
D12*
%TO.P,SW88,X*%
%TO.N,N/C*%
X424868000Y-205376000D03*
%TO.P,SW88,Y*%
X411152000Y-205376000D03*
%TD*%
D10*
%TO.P,SW46,REF*%
%TO.N,N/C*%
X207474000Y-150460000D03*
D11*
%TO.P,SW46,ROW,ROW*%
%TO.N,ROW_6*%
X198965000Y-150460000D03*
D12*
%TO.P,SW46,X*%
%TO.N,N/C*%
X196552000Y-142586000D03*
%TO.P,SW46,Y*%
X210268000Y-142586000D03*
%TD*%
D10*
%TO.P,SW80,REF*%
%TO.N,N/C*%
X385156000Y-213250000D03*
D11*
%TO.P,SW80,ROW,ROW*%
%TO.N,ROW_1*%
X393665000Y-213250000D03*
D12*
%TO.P,SW80,X*%
%TO.N,N/C*%
X396078000Y-205376000D03*
%TO.P,SW80,Y*%
X382362000Y-205376000D03*
%TD*%
D10*
%TO.P,SW72,REF*%
%TO.N,N/C*%
X347256000Y-213250000D03*
D11*
%TO.P,SW72,ROW,ROW*%
%TO.N,ROW_1*%
X355765000Y-213250000D03*
D12*
%TO.P,SW72,X*%
%TO.N,N/C*%
X358178000Y-205376000D03*
%TO.P,SW72,Y*%
X344462000Y-205376000D03*
%TD*%
D10*
%TO.P,SW32,REF*%
%TO.N,N/C*%
X140984000Y-129530000D03*
D11*
%TO.P,SW32,ROW,ROW*%
%TO.N,ROW_8*%
X132475000Y-129530000D03*
D12*
%TO.P,SW32,X*%
%TO.N,N/C*%
X130062000Y-121656000D03*
%TO.P,SW32,Y*%
X143778000Y-121656000D03*
%TD*%
D10*
%TO.P,SW54,REF*%
%TO.N,N/C*%
X256496000Y-150460000D03*
D11*
%TO.P,SW54,ROW,ROW*%
%TO.N,ROW_6*%
X265005000Y-150460000D03*
D12*
%TO.P,SW54,X*%
%TO.N,N/C*%
X267418000Y-142586000D03*
%TO.P,SW54,Y*%
X253702000Y-142586000D03*
%TD*%
D10*
%TO.P,SW74,REF*%
%TO.N,N/C*%
X337746000Y-192320000D03*
D11*
%TO.P,SW74,ROW,ROW*%
%TO.N,ROW_3*%
X346255000Y-192320000D03*
D12*
%TO.P,SW74,X*%
%TO.N,N/C*%
X348668000Y-184446000D03*
%TO.P,SW74,Y*%
X334952000Y-184446000D03*
%TD*%
D10*
%TO.P,SW15,REF*%
%TO.N,N/C*%
X80606000Y-150460000D03*
D11*
%TO.P,SW15,ROW,ROW*%
%TO.N,ROW_7*%
X89115000Y-150460000D03*
D12*
%TO.P,SW15,X*%
%TO.N,N/C*%
X91528000Y-142586000D03*
%TO.P,SW15,Y*%
X77812000Y-142586000D03*
%TD*%
D10*
%TO.P,SW67,REF*%
%TO.N,N/C*%
X299646000Y-171390000D03*
D11*
%TO.P,SW67,ROW,ROW*%
%TO.N,ROW_4*%
X308155000Y-171390000D03*
D12*
%TO.P,SW67,X*%
%TO.N,N/C*%
X310568000Y-163516000D03*
%TO.P,SW67,Y*%
X296852000Y-163516000D03*
%TD*%
D10*
%TO.P,SW30,REF*%
%TO.N,N/C*%
X142196000Y-150460000D03*
D11*
%TO.P,SW30,ROW,ROW*%
%TO.N,ROW_6*%
X150705000Y-150460000D03*
D12*
%TO.P,SW30,X*%
%TO.N,N/C*%
X153118000Y-142586000D03*
%TO.P,SW30,Y*%
X139402000Y-142586000D03*
%TD*%
D10*
%TO.P,SW6,REF*%
%TO.N,N/C*%
X47826000Y-150460000D03*
D11*
%TO.P,SW6,ROW,ROW*%
%TO.N,ROW_6*%
X56335000Y-150460000D03*
D12*
%TO.P,SW6,X*%
%TO.N,N/C*%
X58748000Y-142586000D03*
%TO.P,SW6,Y*%
X45032000Y-142586000D03*
%TD*%
D10*
%TO.P,SW3,REF*%
%TO.N,N/C*%
X36904000Y-171390000D03*
D11*
%TO.P,SW3,ROW,ROW*%
%TO.N,ROW_3*%
X28395000Y-171390000D03*
D12*
%TO.P,SW3,X*%
%TO.N,N/C*%
X25982000Y-163516000D03*
%TO.P,SW3,Y*%
X39698000Y-163516000D03*
%TD*%
D15*
%TO.P,TP7,1,1*%
%TO.N,ROW_7*%
X21000000Y-137900000D03*
%TD*%
D10*
%TO.P,SW50,REF*%
%TO.N,N/C*%
X222124000Y-192320000D03*
D11*
%TO.P,SW50,ROW,ROW*%
%TO.N,ROW_2*%
X213615000Y-192320000D03*
D12*
%TO.P,SW50,X*%
%TO.N,N/C*%
X211202000Y-184446000D03*
%TO.P,SW50,Y*%
X224918000Y-184446000D03*
%TD*%
D10*
%TO.P,SW11,REF*%
%TO.N,N/C*%
X55954000Y-192320000D03*
D11*
%TO.P,SW11,ROW,ROW*%
%TO.N,ROW_3*%
X47445000Y-192320000D03*
D12*
%TO.P,SW11,X*%
%TO.N,N/C*%
X45032000Y-184446000D03*
%TO.P,SW11,Y*%
X58748000Y-184446000D03*
%TD*%
D15*
%TO.P,TP5,1,1*%
%TO.N,ROW_5*%
X21000000Y-158860000D03*
%TD*%
D10*
%TO.P,SW41,REF*%
%TO.N,N/C*%
X196956000Y-213250000D03*
D11*
%TO.P,SW41,ROW,ROW*%
%TO.N,ROW_1*%
X205465000Y-213250000D03*
D12*
%TO.P,SW41,X*%
%TO.N,N/C*%
X207878000Y-205376000D03*
%TO.P,SW41,Y*%
X194162000Y-205376000D03*
%TD*%
D10*
%TO.P,SW43,REF*%
%TO.N,N/C*%
X212524000Y-171390000D03*
D11*
%TO.P,SW43,ROW,ROW*%
%TO.N,ROW_3*%
X204015000Y-171390000D03*
D12*
%TO.P,SW43,X*%
%TO.N,N/C*%
X201602000Y-163516000D03*
%TO.P,SW43,Y*%
X215318000Y-163516000D03*
%TD*%
D10*
%TO.P,SW40,REF*%
%TO.N,N/C*%
X170956000Y-129530000D03*
D11*
%TO.P,SW40,ROW,ROW*%
%TO.N,ROW_8*%
X179465000Y-129530000D03*
D12*
%TO.P,SW40,X*%
%TO.N,N/C*%
X181878000Y-121656000D03*
%TO.P,SW40,Y*%
X168162000Y-121656000D03*
%TD*%
D10*
%TO.P,SW61,REF*%
%TO.N,N/C*%
X275546000Y-150460000D03*
D11*
%TO.P,SW61,ROW,ROW*%
%TO.N,ROW_6*%
X284055000Y-150460000D03*
D12*
%TO.P,SW61,X*%
%TO.N,N/C*%
X286468000Y-142586000D03*
%TO.P,SW61,Y*%
X272752000Y-142586000D03*
%TD*%
D10*
%TO.P,SW31,REF*%
%TO.N,N/C*%
X131274000Y-150460000D03*
D11*
%TO.P,SW31,ROW,ROW*%
%TO.N,ROW_7*%
X122765000Y-150460000D03*
D12*
%TO.P,SW31,X*%
%TO.N,N/C*%
X120352000Y-142586000D03*
%TO.P,SW31,Y*%
X134068000Y-142586000D03*
%TD*%
D15*
%TO.P,TP6,1,1*%
%TO.N,ROW_6*%
X21000000Y-140170000D03*
%TD*%
D10*
%TO.P,SW95,REF*%
%TO.N,N/C*%
X404636000Y-129530000D03*
D11*
%TO.P,SW95,ROW,ROW*%
%TO.N,ROW_8*%
X413145000Y-129530000D03*
D12*
%TO.P,SW95,X*%
%TO.N,N/C*%
X415558000Y-121656000D03*
%TO.P,SW95,Y*%
X401842000Y-121656000D03*
%TD*%
D10*
%TO.P,SW34,REF*%
%TO.N,N/C*%
X184024000Y-192320000D03*
D11*
%TO.P,SW34,ROW,ROW*%
%TO.N,ROW_2*%
X175515000Y-192320000D03*
D12*
%TO.P,SW34,X*%
%TO.N,N/C*%
X173102000Y-184446000D03*
%TO.P,SW34,Y*%
X186818000Y-184446000D03*
%TD*%
D10*
%TO.P,SW93,REF*%
%TO.N,N/C*%
X413946000Y-150460000D03*
D11*
%TO.P,SW93,ROW,ROW*%
%TO.N,ROW_6*%
X422455000Y-150460000D03*
D12*
%TO.P,SW93,X*%
%TO.N,N/C*%
X424868000Y-142586000D03*
%TO.P,SW93,Y*%
X411152000Y-142586000D03*
%TD*%
D10*
%TO.P,SW24,REF*%
%TO.N,N/C*%
X113806000Y-129530000D03*
D11*
%TO.P,SW24,ROW,ROW*%
%TO.N,ROW_8*%
X122315000Y-129530000D03*
D12*
%TO.P,SW24,X*%
%TO.N,N/C*%
X124728000Y-121656000D03*
%TO.P,SW24,Y*%
X111012000Y-121656000D03*
%TD*%
D10*
%TO.P,SW17,REF*%
%TO.N,N/C*%
X113806000Y-213250000D03*
D11*
%TO.P,SW17,ROW,ROW*%
%TO.N,ROW_1*%
X122315000Y-213250000D03*
D12*
%TO.P,SW17,X*%
%TO.N,N/C*%
X124728000Y-205376000D03*
%TO.P,SW17,Y*%
X111012000Y-205376000D03*
%TD*%
D10*
%TO.P,SW27,REF*%
%TO.N,N/C*%
X145924000Y-192320000D03*
D11*
%TO.P,SW27,ROW,ROW*%
%TO.N,ROW_3*%
X137415000Y-192320000D03*
D12*
%TO.P,SW27,X*%
%TO.N,N/C*%
X135002000Y-184446000D03*
%TO.P,SW27,Y*%
X148718000Y-184446000D03*
%TD*%
D10*
%TO.P,SW92,REF*%
%TO.N,N/C*%
X413946000Y-171390000D03*
D11*
%TO.P,SW92,ROW,ROW*%
%TO.N,ROW_5*%
X422455000Y-171390000D03*
D12*
%TO.P,SW92,X*%
%TO.N,N/C*%
X424868000Y-163516000D03*
%TO.P,SW92,Y*%
X411152000Y-163516000D03*
%TD*%
D10*
%TO.P,SW36,REF*%
%TO.N,N/C*%
X174424000Y-171390000D03*
D11*
%TO.P,SW36,ROW,ROW*%
%TO.N,ROW_4*%
X165915000Y-171390000D03*
D12*
%TO.P,SW36,X*%
%TO.N,N/C*%
X163502000Y-163516000D03*
%TO.P,SW36,Y*%
X177218000Y-163516000D03*
%TD*%
D10*
%TO.P,SW59,REF*%
%TO.N,N/C*%
X269674000Y-171390000D03*
D11*
%TO.P,SW59,ROW,ROW*%
%TO.N,ROW_4*%
X261165000Y-171390000D03*
D12*
%TO.P,SW59,X*%
%TO.N,N/C*%
X258752000Y-163516000D03*
%TO.P,SW59,Y*%
X272468000Y-163516000D03*
%TD*%
D16*
%TO.P,J1,1,GND*%
%TO.N,GND*%
X378090000Y-82725000D03*
%TO.P,J1,2,GND*%
X374130000Y-82725000D03*
D17*
%TO.P,J1,3,ROW_1*%
%TO.N,ROW_1*%
X370170000Y-82725000D03*
%TO.P,J1,4,ROW_2*%
%TO.N,ROW_2*%
X366210000Y-82725000D03*
%TO.P,J1,5,ROW_3*%
%TO.N,ROW_3*%
X362250000Y-82725000D03*
%TO.P,J1,6,ROW_4*%
%TO.N,ROW_4*%
X358290000Y-82725000D03*
%TO.P,J1,7,ROW_5*%
%TO.N,ROW_5*%
X354330000Y-82725000D03*
%TO.P,J1,8,ROW_6*%
%TO.N,ROW_6*%
X350370000Y-82725000D03*
%TO.P,J1,9,ROW_7*%
%TO.N,ROW_7*%
X346410000Y-82725000D03*
%TO.P,J1,10,ROW_8*%
%TO.N,ROW_8*%
X342450000Y-82725000D03*
D16*
%TO.P,J1,11,GND*%
%TO.N,GND*%
X338490000Y-82725000D03*
%TO.P,J1,12,GND*%
X334530000Y-82725000D03*
D17*
%TO.P,J1,13,COL_G*%
%TO.N,COL_C*%
X330570000Y-82725000D03*
%TO.P,J1,14,COL_F*%
%TO.N,COL_B*%
X326610000Y-82725000D03*
%TO.P,J1,15,COL_E*%
%TO.N,COL_A*%
X322650000Y-82725000D03*
%TO.P,J1,16,COL_D*%
%TO.N,COL_9*%
X318690000Y-82725000D03*
%TO.P,J1,17,COL_C*%
%TO.N,COL_8*%
X314730000Y-82725000D03*
%TO.P,J1,18,COL_B*%
%TO.N,COL_7*%
X310770000Y-82725000D03*
%TO.P,J1,19,COL_A*%
%TO.N,COL_6*%
X306810000Y-82725000D03*
%TO.P,J1,20,COL_9*%
%TO.N,COL_5*%
X302850000Y-82755000D03*
%TO.P,J1,21,COL_8*%
%TO.N,COL_4*%
X298890000Y-82755000D03*
%TO.P,J1,22,COL_7*%
%TO.N,COL_3*%
X294930000Y-82755000D03*
%TO.P,J1,23,COL_6*%
%TO.N,COL_2*%
X290970000Y-82755000D03*
%TO.P,J1,24,COL_5*%
%TO.N,COL_1*%
X287010000Y-82755000D03*
%TO.P,J1,25,COL_4*%
%TO.N,COL_G*%
X283050000Y-82755000D03*
%TO.P,J1,26,COL_3*%
%TO.N,COL_F*%
X279090000Y-82755000D03*
%TO.P,J1,27,COL_2*%
%TO.N,COL_E*%
X275130000Y-82755000D03*
%TO.P,J1,28,COL_1*%
%TO.N,COL_D*%
X271170000Y-82755000D03*
D16*
%TO.P,J1,29,GND*%
%TO.N,GND*%
X267210000Y-82755000D03*
%TO.P,J1,30,GND*%
X263250000Y-82755000D03*
%TD*%
D10*
%TO.P,SW56,REF*%
%TO.N,N/C*%
X236234000Y-129530000D03*
D11*
%TO.P,SW56,ROW,ROW*%
%TO.N,ROW_8*%
X227725000Y-129530000D03*
D12*
%TO.P,SW56,X*%
%TO.N,N/C*%
X225312000Y-121656000D03*
%TO.P,SW56,Y*%
X239028000Y-121656000D03*
%TD*%
D10*
%TO.P,SW79,REF*%
%TO.N,N/C*%
X330956000Y-129530000D03*
D11*
%TO.P,SW79,ROW,ROW*%
%TO.N,ROW_8*%
X339465000Y-129530000D03*
D12*
%TO.P,SW79,X*%
%TO.N,N/C*%
X341878000Y-121656000D03*
%TO.P,SW79,Y*%
X328162000Y-121656000D03*
%TD*%
D10*
%TO.P,SW81,REF*%
%TO.N,N/C*%
X375846000Y-192320000D03*
D11*
%TO.P,SW81,ROW,ROW*%
%TO.N,ROW_2*%
X384355000Y-192320000D03*
D12*
%TO.P,SW81,X*%
%TO.N,N/C*%
X386768000Y-184446000D03*
%TO.P,SW81,Y*%
X373052000Y-184446000D03*
%TD*%
D10*
%TO.P,SW66,REF*%
%TO.N,N/C*%
X298324000Y-192320000D03*
D11*
%TO.P,SW66,ROW,ROW*%
%TO.N,ROW_3*%
X289815000Y-192320000D03*
D12*
%TO.P,SW66,X*%
%TO.N,N/C*%
X287402000Y-184446000D03*
%TO.P,SW66,Y*%
X301118000Y-184446000D03*
%TD*%
D10*
%TO.P,SW37,REF*%
%TO.N,N/C*%
X169374000Y-150460000D03*
D11*
%TO.P,SW37,ROW,ROW*%
%TO.N,ROW_5*%
X160865000Y-150460000D03*
D12*
%TO.P,SW37,X*%
%TO.N,N/C*%
X158452000Y-142586000D03*
%TO.P,SW37,Y*%
X172168000Y-142586000D03*
%TD*%
D10*
%TO.P,SW78,REF*%
%TO.N,N/C*%
X337746000Y-150460000D03*
D11*
%TO.P,SW78,ROW,ROW*%
%TO.N,ROW_7*%
X346255000Y-150460000D03*
D12*
%TO.P,SW78,X*%
%TO.N,N/C*%
X348668000Y-142586000D03*
%TO.P,SW78,Y*%
X334952000Y-142586000D03*
%TD*%
D10*
%TO.P,SW13,REF*%
%TO.N,N/C*%
X82996000Y-171390000D03*
D11*
%TO.P,SW13,ROW,ROW*%
%TO.N,ROW_5*%
X91505000Y-171390000D03*
D12*
%TO.P,SW13,X*%
%TO.N,N/C*%
X93918000Y-163516000D03*
%TO.P,SW13,Y*%
X80202000Y-163516000D03*
%TD*%
D10*
%TO.P,SW77,REF*%
%TO.N,N/C*%
X324294000Y-150460000D03*
D11*
%TO.P,SW77,ROW,ROW*%
%TO.N,ROW_6*%
X315785000Y-150460000D03*
D12*
%TO.P,SW77,X*%
%TO.N,N/C*%
X313372000Y-142586000D03*
%TO.P,SW77,Y*%
X327088000Y-142586000D03*
%TD*%
D10*
%TO.P,SW18,REF*%
%TO.N,N/C*%
X102884000Y-213250000D03*
D11*
%TO.P,SW18,ROW,ROW*%
%TO.N,ROW_2*%
X94375000Y-213250000D03*
D12*
%TO.P,SW18,X*%
%TO.N,N/C*%
X91962000Y-205376000D03*
%TO.P,SW18,Y*%
X105678000Y-205376000D03*
%TD*%
D10*
%TO.P,SW51,REF*%
%TO.N,N/C*%
X233046000Y-192320000D03*
D11*
%TO.P,SW51,ROW,ROW*%
%TO.N,ROW_3*%
X241555000Y-192320000D03*
D12*
%TO.P,SW51,X*%
%TO.N,N/C*%
X243968000Y-184446000D03*
%TO.P,SW51,Y*%
X230252000Y-184446000D03*
%TD*%
D10*
%TO.P,SW12,REF*%
%TO.N,N/C*%
X78086000Y-192320000D03*
D11*
%TO.P,SW12,ROW,ROW*%
%TO.N,ROW_4*%
X86595000Y-192320000D03*
D12*
%TO.P,SW12,X*%
%TO.N,N/C*%
X89008000Y-184446000D03*
%TO.P,SW12,Y*%
X75292000Y-184446000D03*
%TD*%
D10*
%TO.P,SW62,REF*%
%TO.N,N/C*%
X266206000Y-129530000D03*
D11*
%TO.P,SW62,ROW,ROW*%
%TO.N,ROW_7*%
X274715000Y-129530000D03*
D12*
%TO.P,SW62,X*%
%TO.N,N/C*%
X277128000Y-121656000D03*
%TO.P,SW62,Y*%
X263412000Y-121656000D03*
%TD*%
D10*
%TO.P,SW42,REF*%
%TO.N,N/C*%
X203074000Y-192320000D03*
D11*
%TO.P,SW42,ROW,ROW*%
%TO.N,ROW_2*%
X194565000Y-192320000D03*
D12*
%TO.P,SW42,X*%
%TO.N,N/C*%
X192152000Y-184446000D03*
%TO.P,SW42,Y*%
X205868000Y-184446000D03*
%TD*%
D10*
%TO.P,SW9,REF*%
%TO.N,N/C*%
X75706000Y-213250000D03*
D11*
%TO.P,SW9,ROW,ROW*%
%TO.N,ROW_1*%
X84215000Y-213250000D03*
D12*
%TO.P,SW9,X*%
%TO.N,N/C*%
X86628000Y-205376000D03*
%TO.P,SW9,Y*%
X72912000Y-205376000D03*
%TD*%
D10*
%TO.P,SW84,REF*%
%TO.N,N/C*%
X364924000Y-171390000D03*
D11*
%TO.P,SW84,ROW,ROW*%
%TO.N,ROW_5*%
X356415000Y-171390000D03*
D12*
%TO.P,SW84,X*%
%TO.N,N/C*%
X354002000Y-163516000D03*
%TO.P,SW84,Y*%
X367718000Y-163516000D03*
%TD*%
D10*
%TO.P,SW39,REF*%
%TO.N,N/C*%
X160034000Y-129530000D03*
D11*
%TO.P,SW39,ROW,ROW*%
%TO.N,ROW_7*%
X151525000Y-129530000D03*
D12*
%TO.P,SW39,X*%
%TO.N,N/C*%
X149112000Y-121656000D03*
%TO.P,SW39,Y*%
X162828000Y-121656000D03*
%TD*%
D10*
%TO.P,SW21,REF*%
%TO.N,N/C*%
X117274000Y-171390000D03*
D11*
%TO.P,SW21,ROW,ROW*%
%TO.N,ROW_5*%
X108765000Y-171390000D03*
D12*
%TO.P,SW21,X*%
%TO.N,N/C*%
X106352000Y-163516000D03*
%TO.P,SW21,Y*%
X120068000Y-163516000D03*
%TD*%
D15*
%TO.P,TP4,1,1*%
%TO.N,ROW_4*%
X21000000Y-161090000D03*
%TD*%
D10*
%TO.P,SW48,REF*%
%TO.N,N/C*%
X209056000Y-129530000D03*
D11*
%TO.P,SW48,ROW,ROW*%
%TO.N,ROW_8*%
X217565000Y-129530000D03*
D12*
%TO.P,SW48,X*%
%TO.N,N/C*%
X219978000Y-121656000D03*
%TO.P,SW48,Y*%
X206262000Y-121656000D03*
%TD*%
D10*
%TO.P,SW85,REF*%
%TO.N,N/C*%
X364924000Y-150460000D03*
D11*
%TO.P,SW85,ROW,ROW*%
%TO.N,ROW_6*%
X356415000Y-150460000D03*
D12*
%TO.P,SW85,X*%
%TO.N,N/C*%
X354002000Y-142586000D03*
%TO.P,SW85,Y*%
X367718000Y-142586000D03*
%TD*%
D10*
%TO.P,SW7,REF*%
%TO.N,N/C*%
X36904000Y-129530000D03*
D11*
%TO.P,SW7,ROW,ROW*%
%TO.N,ROW_7*%
X28395000Y-129530000D03*
D12*
%TO.P,SW7,X*%
%TO.N,N/C*%
X25982000Y-121656000D03*
%TO.P,SW7,Y*%
X39698000Y-121656000D03*
%TD*%
D10*
%TO.P,SW28,REF*%
%TO.N,N/C*%
X147246000Y-171390000D03*
D11*
%TO.P,SW28,ROW,ROW*%
%TO.N,ROW_4*%
X155755000Y-171390000D03*
D12*
%TO.P,SW28,X*%
%TO.N,N/C*%
X158168000Y-163516000D03*
%TO.P,SW28,Y*%
X144452000Y-163516000D03*
%TD*%
D15*
%TO.P,TP2,1,1*%
%TO.N,ROW_2*%
X21000000Y-202440000D03*
%TD*%
D10*
%TO.P,SW16,REF*%
%TO.N,N/C*%
X83834000Y-129530000D03*
D11*
%TO.P,SW16,ROW,ROW*%
%TO.N,ROW_8*%
X75325000Y-129530000D03*
D12*
%TO.P,SW16,X*%
%TO.N,N/C*%
X72912000Y-121656000D03*
%TO.P,SW16,Y*%
X86628000Y-121656000D03*
%TD*%
D10*
%TO.P,SW52,REF*%
%TO.N,N/C*%
X242496000Y-171390000D03*
D11*
%TO.P,SW52,ROW,ROW*%
%TO.N,ROW_4*%
X251005000Y-171390000D03*
D12*
%TO.P,SW52,X*%
%TO.N,N/C*%
X253418000Y-163516000D03*
%TO.P,SW52,Y*%
X239702000Y-163516000D03*
%TD*%
D15*
%TO.P,TP3,1,1*%
%TO.N,ROW_3*%
X21000000Y-181540000D03*
%TD*%
D10*
%TO.P,SW23,REF*%
%TO.N,N/C*%
X102884000Y-129530000D03*
D11*
%TO.P,SW23,ROW,ROW*%
%TO.N,ROW_7*%
X94375000Y-129530000D03*
D12*
%TO.P,SW23,X*%
%TO.N,N/C*%
X91962000Y-121656000D03*
%TO.P,SW23,Y*%
X105678000Y-121656000D03*
%TD*%
D10*
%TO.P,SW53,REF*%
%TO.N,N/C*%
X245574000Y-150460000D03*
D11*
%TO.P,SW53,ROW,ROW*%
%TO.N,ROW_5*%
X237065000Y-150460000D03*
D12*
%TO.P,SW53,X*%
%TO.N,N/C*%
X234652000Y-142586000D03*
%TO.P,SW53,Y*%
X248368000Y-142586000D03*
%TD*%
D10*
%TO.P,SW89,REF*%
%TO.N,N/C*%
X413946000Y-192320000D03*
D11*
%TO.P,SW89,ROW,ROW*%
%TO.N,ROW_2*%
X422455000Y-192320000D03*
D12*
%TO.P,SW89,X*%
%TO.N,N/C*%
X424868000Y-184446000D03*
%TO.P,SW89,Y*%
X411152000Y-184446000D03*
%TD*%
D10*
%TO.P,SW5,REF*%
%TO.N,N/C*%
X36904000Y-150460000D03*
D11*
%TO.P,SW5,ROW,ROW*%
%TO.N,ROW_5*%
X28395000Y-150460000D03*
D12*
%TO.P,SW5,X*%
%TO.N,N/C*%
X25982000Y-142586000D03*
%TO.P,SW5,Y*%
X39698000Y-142586000D03*
%TD*%
D10*
%TO.P,SW49,REF*%
%TO.N,N/C*%
X224134000Y-213250000D03*
D11*
%TO.P,SW49,ROW,ROW*%
%TO.N,ROW_1*%
X215625000Y-213250000D03*
D12*
%TO.P,SW49,X*%
%TO.N,N/C*%
X213212000Y-205376000D03*
%TO.P,SW49,Y*%
X226928000Y-205376000D03*
%TD*%
D10*
%TO.P,SW58,REF*%
%TO.N,N/C*%
X271146000Y-192320000D03*
D11*
%TO.P,SW58,ROW,ROW*%
%TO.N,ROW_3*%
X279655000Y-192320000D03*
D12*
%TO.P,SW58,X*%
%TO.N,N/C*%
X282068000Y-184446000D03*
%TO.P,SW58,Y*%
X268352000Y-184446000D03*
%TD*%
D10*
%TO.P,SW1,REF*%
%TO.N,N/C*%
X36904000Y-213250000D03*
D11*
%TO.P,SW1,ROW,ROW*%
%TO.N,ROW_1*%
X28395000Y-213250000D03*
D12*
%TO.P,SW1,X*%
%TO.N,N/C*%
X25982000Y-205376000D03*
%TO.P,SW1,Y*%
X39698000Y-205376000D03*
%TD*%
D10*
%TO.P,SW19,REF*%
%TO.N,N/C*%
X118746000Y-192320000D03*
D11*
%TO.P,SW19,ROW,ROW*%
%TO.N,ROW_3*%
X127255000Y-192320000D03*
D12*
%TO.P,SW19,X*%
%TO.N,N/C*%
X129668000Y-184446000D03*
%TO.P,SW19,Y*%
X115952000Y-184446000D03*
%TD*%
D10*
%TO.P,SW68,REF*%
%TO.N,N/C*%
X294596000Y-150460000D03*
D11*
%TO.P,SW68,ROW,ROW*%
%TO.N,ROW_5*%
X303105000Y-150460000D03*
D12*
%TO.P,SW68,X*%
%TO.N,N/C*%
X305518000Y-142586000D03*
%TO.P,SW68,Y*%
X291802000Y-142586000D03*
%TD*%
D10*
%TO.P,SW91,REF*%
%TO.N,N/C*%
X403024000Y-171390000D03*
D11*
%TO.P,SW91,ROW,ROW*%
%TO.N,ROW_4*%
X394515000Y-171390000D03*
D12*
%TO.P,SW91,X*%
%TO.N,N/C*%
X392102000Y-163516000D03*
%TO.P,SW91,Y*%
X405818000Y-163516000D03*
%TD*%
D10*
%TO.P,SW83,REF*%
%TO.N,N/C*%
X375846000Y-171390000D03*
D11*
%TO.P,SW83,ROW,ROW*%
%TO.N,ROW_4*%
X384355000Y-171390000D03*
D12*
%TO.P,SW83,X*%
%TO.N,N/C*%
X386768000Y-163516000D03*
%TO.P,SW83,Y*%
X373052000Y-163516000D03*
%TD*%
D10*
%TO.P,SW38,REF*%
%TO.N,N/C*%
X180296000Y-150460000D03*
D11*
%TO.P,SW38,ROW,ROW*%
%TO.N,ROW_6*%
X188805000Y-150460000D03*
D12*
%TO.P,SW38,X*%
%TO.N,N/C*%
X191218000Y-142586000D03*
%TO.P,SW38,Y*%
X177502000Y-142586000D03*
%TD*%
D10*
%TO.P,SW86,REF*%
%TO.N,N/C*%
X375846000Y-150460000D03*
D11*
%TO.P,SW86,ROW,ROW*%
%TO.N,ROW_7*%
X384355000Y-150460000D03*
D12*
%TO.P,SW86,X*%
%TO.N,N/C*%
X386768000Y-142586000D03*
%TO.P,SW86,Y*%
X373052000Y-142586000D03*
%TD*%
D10*
%TO.P,SW26,REF*%
%TO.N,N/C*%
X156846000Y-192320000D03*
D11*
%TO.P,SW26,ROW,ROW*%
%TO.N,ROW_2*%
X165355000Y-192320000D03*
D12*
%TO.P,SW26,X*%
%TO.N,N/C*%
X167768000Y-184446000D03*
%TO.P,SW26,Y*%
X154052000Y-184446000D03*
%TD*%
D10*
%TO.P,SW45,REF*%
%TO.N,N/C*%
X218396000Y-150460000D03*
D11*
%TO.P,SW45,ROW,ROW*%
%TO.N,ROW_5*%
X226905000Y-150460000D03*
D12*
%TO.P,SW45,X*%
%TO.N,N/C*%
X229318000Y-142586000D03*
%TO.P,SW45,Y*%
X215602000Y-142586000D03*
%TD*%
D10*
%TO.P,SW73,REF*%
%TO.N,N/C*%
X322464000Y-192320000D03*
D11*
%TO.P,SW73,ROW,ROW*%
%TO.N,ROW_2*%
X313955000Y-192320000D03*
D12*
%TO.P,SW73,X*%
%TO.N,N/C*%
X311542000Y-184446000D03*
%TO.P,SW73,Y*%
X325258000Y-184446000D03*
%TD*%
D10*
%TO.P,SW35,REF*%
%TO.N,N/C*%
X185346000Y-171390000D03*
D11*
%TO.P,SW35,ROW,ROW*%
%TO.N,ROW_3*%
X193855000Y-171390000D03*
D12*
%TO.P,SW35,X*%
%TO.N,N/C*%
X196268000Y-163516000D03*
%TO.P,SW35,Y*%
X182552000Y-163516000D03*
%TD*%
D18*
%TO.N,ROW_1*%
X370170000Y-82725000D02*
X370170000Y-105190000D01*
X205465000Y-202445000D02*
X215625000Y-202445000D01*
X129500000Y-222130000D02*
X205470000Y-222130000D01*
X28395000Y-222125000D02*
X28390000Y-222130000D01*
X92470000Y-222130000D02*
X94350000Y-222130000D01*
X433000000Y-202440000D02*
X433000000Y-105200000D01*
X276305000Y-202445000D02*
X299245000Y-202445000D01*
X84215000Y-222125000D02*
X84210000Y-222130000D01*
X94375000Y-222105000D02*
X94350000Y-222130000D01*
X205465000Y-213250000D02*
X205465000Y-202445000D01*
X354790000Y-222130000D02*
X355760000Y-222130000D01*
X84210000Y-222130000D02*
X92470000Y-222130000D01*
X433000000Y-105200000D02*
X370160000Y-105200000D01*
X355765000Y-202455000D02*
X355780000Y-202440000D01*
X215625000Y-202445000D02*
X224525000Y-202445000D01*
X215625000Y-213250000D02*
X215625000Y-202445000D01*
X422460000Y-202440000D02*
X395410000Y-202440000D01*
X29380000Y-222130000D02*
X84210000Y-222130000D01*
X84215000Y-213250000D02*
X84215000Y-222125000D01*
X355765000Y-222125000D02*
X355760000Y-222130000D01*
X370170000Y-105190000D02*
X370160000Y-105200000D01*
X224525000Y-202445000D02*
X232485000Y-202445000D01*
X395410000Y-202440000D02*
X394620000Y-202440000D01*
X224515000Y-202455000D02*
X224525000Y-202445000D01*
X205465000Y-213250000D02*
X205465000Y-222125000D01*
X355765000Y-213250000D02*
X355765000Y-202455000D01*
X122315000Y-213250000D02*
X122315000Y-222125000D01*
X232485000Y-202445000D02*
X276305000Y-202445000D01*
X277292000Y-202458000D02*
X277305000Y-202445000D01*
X422455000Y-213250000D02*
X422455000Y-202445000D01*
X21000000Y-222130000D02*
X29380000Y-222130000D01*
X260224000Y-216298000D02*
X277292000Y-216298000D01*
X299265000Y-202465000D02*
X299245000Y-202445000D01*
X205465000Y-222125000D02*
X205470000Y-222130000D01*
X276305000Y-202445000D02*
X277305000Y-202445000D01*
X299270000Y-222130000D02*
X327210000Y-222130000D01*
X28390000Y-222130000D02*
X29380000Y-222130000D01*
X122315000Y-222125000D02*
X122310000Y-222130000D01*
X299265000Y-213250000D02*
X299265000Y-202465000D01*
X277292000Y-216298000D02*
X277292000Y-202458000D01*
X393665000Y-213250000D02*
X393665000Y-202495000D01*
X394620000Y-202440000D02*
X393720000Y-202440000D01*
X92470000Y-222130000D02*
X122310000Y-222130000D01*
X327205000Y-222125000D02*
X327210000Y-222130000D01*
X327210000Y-222130000D02*
X354790000Y-222130000D01*
X122310000Y-222130000D02*
X129500000Y-222130000D01*
X28395000Y-213250000D02*
X28395000Y-222125000D01*
X299265000Y-213250000D02*
X299265000Y-222125000D01*
X433000000Y-202440000D02*
X422460000Y-202440000D01*
X395410000Y-202440000D02*
X355780000Y-202440000D01*
X422455000Y-202445000D02*
X422460000Y-202440000D01*
X393720000Y-202440000D02*
X393665000Y-202495000D01*
X299265000Y-222125000D02*
X299270000Y-222130000D01*
X355765000Y-213250000D02*
X355765000Y-222125000D01*
%TO.N,ROW_2*%
X47445000Y-213250000D02*
X47445000Y-202455000D01*
X212760000Y-201220000D02*
X251720000Y-201220000D01*
X174260000Y-202440000D02*
X194560000Y-202440000D01*
X251715000Y-201215000D02*
X251720000Y-201220000D01*
X47460000Y-202440000D02*
X48730000Y-202440000D01*
X126140000Y-202440000D02*
X127230000Y-202440000D01*
X366200000Y-105710000D02*
X366210000Y-105700000D01*
X213615000Y-201220000D02*
X212760000Y-201220000D01*
X174260000Y-202440000D02*
X175520000Y-202440000D01*
X165355000Y-192320000D02*
X165355000Y-202435000D01*
X47445000Y-202455000D02*
X47460000Y-202440000D01*
X28395000Y-192320000D02*
X28395000Y-202440000D01*
X251720000Y-201220000D02*
X313950000Y-201220000D01*
X122315000Y-202445000D02*
X122310000Y-202440000D01*
X194565000Y-192320000D02*
X194565000Y-199925000D01*
X194565000Y-200105000D02*
X194565000Y-202435000D01*
X122310000Y-202440000D02*
X126140000Y-202440000D01*
X165350000Y-202440000D02*
X174260000Y-202440000D01*
X327200000Y-201220000D02*
X384335000Y-201220000D01*
X327205000Y-201225000D02*
X327200000Y-201220000D01*
X194565000Y-199925000D02*
X194565000Y-200105000D01*
X48730000Y-202440000D02*
X25970000Y-202440000D01*
X313955000Y-192320000D02*
X313955000Y-201215000D01*
X327205000Y-213250000D02*
X327205000Y-201225000D01*
X48730000Y-202440000D02*
X59250000Y-202440000D01*
X384355000Y-192320000D02*
X384355000Y-201200000D01*
X94375000Y-213250000D02*
X94375000Y-202445000D01*
X313950000Y-201220000D02*
X327200000Y-201220000D01*
X384335000Y-201220000D02*
X422140000Y-201220000D01*
X175515000Y-202435000D02*
X175520000Y-202440000D01*
X422455000Y-201195000D02*
X422430000Y-201220000D01*
X251715000Y-192320000D02*
X251715000Y-201215000D01*
X422140000Y-201220000D02*
X432450000Y-201220000D01*
X194560000Y-202440000D02*
X194565000Y-202435000D01*
X432492000Y-201190000D02*
X432492000Y-105710000D01*
X94375000Y-202445000D02*
X94380000Y-202440000D01*
X194580000Y-201220000D02*
X194565000Y-201205000D01*
X127230000Y-202440000D02*
X165350000Y-202440000D01*
X432480000Y-201190000D02*
X432492000Y-201190000D01*
X422455000Y-192320000D02*
X422455000Y-201195000D01*
X384355000Y-201200000D02*
X384335000Y-201220000D01*
X213615000Y-192320000D02*
X213615000Y-201220000D01*
X313955000Y-201215000D02*
X313950000Y-201220000D01*
X175515000Y-192320000D02*
X175515000Y-202435000D01*
X94380000Y-202440000D02*
X122310000Y-202440000D01*
X25970000Y-202440000D02*
X21000000Y-202440000D01*
X194565000Y-200105000D02*
X194565000Y-201205000D01*
X59250000Y-202440000D02*
X94380000Y-202440000D01*
X55980000Y-202440000D02*
X59250000Y-202440000D01*
X432492000Y-105710000D02*
X366200000Y-105710000D01*
X195510000Y-201220000D02*
X194580000Y-201220000D01*
X422140000Y-201220000D02*
X422430000Y-201220000D01*
X432450000Y-201220000D02*
X432480000Y-201190000D01*
X212760000Y-201220000D02*
X195510000Y-201220000D01*
X56335000Y-202445000D02*
X56330000Y-202440000D01*
X165355000Y-202435000D02*
X165350000Y-202440000D01*
X366210000Y-105700000D02*
X366210000Y-82725000D01*
X56330000Y-202440000D02*
X55980000Y-202440000D01*
%TO.N,ROW_3*%
X288730000Y-181530000D02*
X346250000Y-181530000D01*
X137420000Y-181530000D02*
X138060000Y-181530000D01*
X137415000Y-181535000D02*
X137420000Y-181530000D01*
X47440000Y-181540000D02*
X29190000Y-181540000D01*
X394380000Y-181520000D02*
X394500000Y-181520000D01*
X47445000Y-201190000D02*
X127250000Y-201190000D01*
X362250000Y-82725000D02*
X362250000Y-106210000D01*
X362250000Y-106210000D02*
X362260000Y-106220000D01*
X346255000Y-192320000D02*
X346255000Y-181535000D01*
X137415000Y-192320000D02*
X137415000Y-181535000D01*
X47445000Y-192320000D02*
X47445000Y-181545000D01*
X193840000Y-181530000D02*
X169860000Y-181530000D01*
X356420000Y-181520000D02*
X357450000Y-181520000D01*
X394515000Y-192320000D02*
X394515000Y-181535000D01*
X193855000Y-171390000D02*
X193855000Y-181515000D01*
X242360000Y-181530000D02*
X279680000Y-181530000D01*
X356415000Y-181525000D02*
X356420000Y-181520000D01*
X127255000Y-181535000D02*
X127260000Y-181530000D01*
X47445000Y-192320000D02*
X47445000Y-201190000D01*
X394515000Y-181535000D02*
X394500000Y-181520000D01*
X288730000Y-181530000D02*
X289820000Y-181530000D01*
X241555000Y-192320000D02*
X241555000Y-181555000D01*
X241555000Y-181555000D02*
X241530000Y-181530000D01*
X28395000Y-171390000D02*
X28395000Y-181535000D01*
X204015000Y-181515000D02*
X204000000Y-181530000D01*
X127255000Y-201185000D02*
X127250000Y-201190000D01*
X358790000Y-181520000D02*
X394380000Y-181520000D01*
X204000000Y-181530000D02*
X193840000Y-181530000D01*
X358780000Y-181530000D02*
X358790000Y-181520000D01*
X289815000Y-192320000D02*
X289815000Y-181535000D01*
X127255000Y-192320000D02*
X127255000Y-181535000D01*
X204015000Y-171390000D02*
X204015000Y-181515000D01*
X138060000Y-181530000D02*
X127260000Y-181530000D01*
X279680000Y-181530000D02*
X288730000Y-181530000D01*
X289815000Y-181535000D02*
X289820000Y-181530000D01*
X29190000Y-181540000D02*
X28400000Y-181540000D01*
X47445000Y-181545000D02*
X47440000Y-181540000D01*
X139260000Y-181530000D02*
X169860000Y-181530000D01*
X21000000Y-181540000D02*
X29190000Y-181540000D01*
X28395000Y-181535000D02*
X28400000Y-181540000D01*
X346250000Y-181530000D02*
X358780000Y-181530000D01*
X431984000Y-106220000D02*
X362260000Y-106220000D01*
X138060000Y-181530000D02*
X138220000Y-181530000D01*
X279655000Y-192320000D02*
X279655000Y-181555000D01*
X279655000Y-181555000D02*
X279680000Y-181530000D01*
X357450000Y-181520000D02*
X358790000Y-181520000D01*
X394380000Y-181520000D02*
X431984000Y-181520000D01*
X193855000Y-181515000D02*
X193840000Y-181530000D01*
X241530000Y-181530000D02*
X242360000Y-181530000D01*
X127255000Y-192320000D02*
X127255000Y-201185000D01*
X346255000Y-181535000D02*
X346250000Y-181530000D01*
X242360000Y-181530000D02*
X204000000Y-181530000D01*
X431984000Y-181520000D02*
X431984000Y-106220000D01*
X138220000Y-181530000D02*
X139260000Y-181530000D01*
X356415000Y-192320000D02*
X356415000Y-181525000D01*
%TO.N,ROW_4*%
X56335000Y-160595000D02*
X56330000Y-160590000D01*
X165915000Y-171390000D02*
X165915000Y-160615000D01*
X56330000Y-160590000D02*
X25200000Y-160590000D01*
X358290000Y-82725000D02*
X358290000Y-106720000D01*
X195490000Y-160610000D02*
X195730000Y-160610000D01*
X155760000Y-180270000D02*
X156600000Y-180270000D01*
X231955000Y-160615000D02*
X231960000Y-160610000D01*
X56335000Y-171390000D02*
X56335000Y-160595000D01*
X394515000Y-180275000D02*
X394510000Y-180280000D01*
X358290000Y-106720000D02*
X358282000Y-106728000D01*
X242115000Y-180275000D02*
X242110000Y-180280000D01*
X393900000Y-180280000D02*
X394510000Y-180280000D01*
X25200000Y-160590000D02*
X21500000Y-160590000D01*
X195730000Y-160610000D02*
X197010000Y-161890000D01*
X431476000Y-106728000D02*
X358282000Y-106728000D01*
X201990000Y-160610000D02*
X201970000Y-160630000D01*
X165915000Y-171390000D02*
X165915000Y-180265000D01*
X56335000Y-180265000D02*
X56330000Y-180270000D01*
X251005000Y-180275000D02*
X251010000Y-180280000D01*
X242110000Y-180280000D02*
X251010000Y-180280000D01*
X261160000Y-180280000D02*
X308160000Y-180280000D01*
X99315000Y-192320000D02*
X99315000Y-180275000D01*
X394515000Y-171390000D02*
X394515000Y-180275000D01*
X261165000Y-171390000D02*
X261165000Y-180275000D01*
X346255000Y-180285000D02*
X346250000Y-180280000D01*
X21500000Y-160590000D02*
X21010000Y-161080000D01*
X99320000Y-180270000D02*
X85550000Y-180270000D01*
X261165000Y-180275000D02*
X261160000Y-180280000D01*
X393900000Y-180280000D02*
X431476000Y-180280000D01*
X231955000Y-171390000D02*
X231955000Y-180275000D01*
X155755000Y-180265000D02*
X155760000Y-180270000D01*
X308160000Y-180280000D02*
X314010000Y-180280000D01*
X231960000Y-160610000D02*
X201990000Y-160610000D01*
X165915000Y-160615000D02*
X165920000Y-160610000D01*
X155755000Y-171390000D02*
X155755000Y-180265000D01*
X231960000Y-180280000D02*
X242110000Y-180280000D01*
X56335000Y-171390000D02*
X56335000Y-180265000D01*
X384340000Y-180280000D02*
X393900000Y-180280000D01*
X314010000Y-180280000D02*
X346250000Y-180280000D01*
X231955000Y-171390000D02*
X231955000Y-160615000D01*
X156600000Y-180270000D02*
X99320000Y-180270000D01*
X197010000Y-161890000D02*
X200710000Y-161890000D01*
X346250000Y-180280000D02*
X384340000Y-180280000D01*
X251005000Y-171390000D02*
X251005000Y-180275000D01*
X165915000Y-180265000D02*
X165910000Y-180270000D01*
X231955000Y-180275000D02*
X231960000Y-180280000D01*
X384355000Y-180265000D02*
X384340000Y-180280000D01*
X200710000Y-161890000D02*
X201970000Y-160630000D01*
X86595000Y-192320000D02*
X86595000Y-180275000D01*
X85550000Y-180270000D02*
X86600000Y-180270000D01*
X86595000Y-180275000D02*
X86600000Y-180270000D01*
X431476000Y-180280000D02*
X431476000Y-106728000D01*
X384355000Y-171390000D02*
X384355000Y-180265000D01*
X308155000Y-171390000D02*
X308155000Y-180275000D01*
X165920000Y-160610000D02*
X195490000Y-160610000D01*
X99315000Y-180275000D02*
X99320000Y-180270000D01*
X251010000Y-180280000D02*
X261160000Y-180280000D01*
X56330000Y-180270000D02*
X85550000Y-180270000D01*
X308155000Y-180275000D02*
X308160000Y-180280000D01*
X156600000Y-180270000D02*
X165910000Y-180270000D01*
%TO.N,ROW_5*%
X28395000Y-159355000D02*
X28390000Y-159360000D01*
X91500000Y-160570000D02*
X90730000Y-160570000D01*
X160865000Y-150460000D02*
X160865000Y-159335000D01*
X108720000Y-160570000D02*
X127820000Y-160570000D01*
X160880000Y-159350000D02*
X160865000Y-159335000D01*
X201710000Y-159350000D02*
X199840000Y-161220000D01*
X29135000Y-159355000D02*
X21485000Y-159355000D01*
X303105000Y-160565000D02*
X303100000Y-160570000D01*
X422480000Y-160570000D02*
X430968000Y-160570000D01*
X160865000Y-160555000D02*
X160850000Y-160570000D01*
X226905000Y-150460000D02*
X226905000Y-159305000D01*
X90730000Y-160570000D02*
X67420000Y-160570000D01*
X289100000Y-160570000D02*
X303100000Y-160570000D01*
X196030000Y-159400000D02*
X196030000Y-159350000D01*
X422455000Y-171390000D02*
X422455000Y-160595000D01*
X237060000Y-160570000D02*
X289100000Y-160570000D01*
X57920000Y-160570000D02*
X57920000Y-159360000D01*
X57920000Y-159360000D02*
X57925000Y-159355000D01*
X199840000Y-161220000D02*
X197850000Y-161220000D01*
X91505000Y-160575000D02*
X91500000Y-160570000D01*
X195570000Y-159350000D02*
X196030000Y-159350000D01*
X91505000Y-171390000D02*
X91505000Y-160575000D01*
X237065000Y-150460000D02*
X237065000Y-159365000D01*
X226905000Y-159305000D02*
X226950000Y-159350000D01*
X354460000Y-160570000D02*
X422480000Y-160570000D01*
X29135000Y-159355000D02*
X57925000Y-159355000D01*
X127815000Y-160575000D02*
X127820000Y-160570000D01*
X422455000Y-160595000D02*
X422480000Y-160570000D01*
X318290000Y-160570000D02*
X354460000Y-160570000D01*
X237065000Y-160565000D02*
X237060000Y-160570000D01*
X67420000Y-160570000D02*
X57920000Y-160570000D01*
X195570000Y-159350000D02*
X160880000Y-159350000D01*
X28395000Y-159355000D02*
X29135000Y-159355000D01*
X303100000Y-160570000D02*
X318290000Y-160570000D01*
X226950000Y-159350000D02*
X237050000Y-159350000D01*
X318315000Y-160595000D02*
X318290000Y-160570000D01*
X237065000Y-159365000D02*
X237065000Y-160565000D01*
X21485000Y-159355000D02*
X21000000Y-158870000D01*
X430968000Y-107240000D02*
X354330000Y-107240000D01*
X226950000Y-159350000D02*
X201710000Y-159350000D01*
X160865000Y-159335000D02*
X160865000Y-160555000D01*
X354330000Y-82725000D02*
X354330000Y-107240000D01*
X430968000Y-160570000D02*
X430968000Y-107240000D01*
X289105000Y-160575000D02*
X289100000Y-160570000D01*
X303105000Y-150460000D02*
X303105000Y-160565000D01*
X356415000Y-160575000D02*
X356420000Y-160570000D01*
X356415000Y-171390000D02*
X356415000Y-160575000D01*
X127820000Y-160570000D02*
X160850000Y-160570000D01*
X197850000Y-161220000D02*
X196030000Y-159400000D01*
X289105000Y-171390000D02*
X289105000Y-160575000D01*
X127815000Y-171390000D02*
X127815000Y-160575000D01*
X108765000Y-171390000D02*
X108765000Y-160615000D01*
X318315000Y-171390000D02*
X318315000Y-160595000D01*
X237050000Y-159350000D02*
X237065000Y-159365000D01*
X28395000Y-150460000D02*
X28395000Y-159355000D01*
X354460000Y-160570000D02*
X356420000Y-160570000D01*
X108765000Y-160615000D02*
X108720000Y-160570000D01*
X90730000Y-160570000D02*
X108720000Y-160570000D01*
%TO.N,ROW_6*%
X150710000Y-139660000D02*
X188780000Y-139660000D01*
X150705000Y-139665000D02*
X150710000Y-139660000D01*
X103715000Y-159325000D02*
X103690000Y-159350000D01*
X356415000Y-150460000D02*
X356415000Y-159325000D01*
X188780000Y-139660000D02*
X198970000Y-139660000D01*
X103690000Y-159350000D02*
X150690000Y-159350000D01*
X56340000Y-139670000D02*
X56335000Y-139675000D01*
X150705000Y-159335000D02*
X150690000Y-159350000D01*
X67720000Y-150460000D02*
X67720000Y-159350000D01*
X315785000Y-139665000D02*
X315790000Y-139660000D01*
X150705000Y-150460000D02*
X150705000Y-159335000D01*
X315785000Y-150460000D02*
X315785000Y-139665000D01*
X226940000Y-139660000D02*
X265020000Y-139660000D01*
X56335000Y-139675000D02*
X56335000Y-150460000D01*
X422455000Y-159345000D02*
X422450000Y-159350000D01*
X198965000Y-139665000D02*
X198970000Y-139660000D01*
X421060000Y-159350000D02*
X430460000Y-159350000D01*
X56335000Y-150460000D02*
X67720000Y-150460000D01*
X315785000Y-150460000D02*
X315785000Y-159345000D01*
X21490000Y-139670000D02*
X56340000Y-139670000D01*
X356415000Y-159325000D02*
X356440000Y-159350000D01*
X103715000Y-150460000D02*
X103715000Y-159325000D01*
X21000000Y-140160000D02*
X21490000Y-139670000D01*
X198965000Y-150460000D02*
X198965000Y-139665000D01*
X284055000Y-150460000D02*
X284055000Y-139675000D01*
X67720000Y-159350000D02*
X103690000Y-159350000D01*
X430460000Y-159350000D02*
X430460000Y-107748000D01*
X265020000Y-139660000D02*
X284070000Y-139660000D01*
X356440000Y-159350000D02*
X421060000Y-159350000D01*
X188805000Y-150460000D02*
X188805000Y-139685000D01*
X350370000Y-107740000D02*
X350378000Y-107748000D01*
X284055000Y-139675000D02*
X284070000Y-139660000D01*
X315785000Y-159345000D02*
X315790000Y-159350000D01*
X430460000Y-107748000D02*
X350378000Y-107748000D01*
X198970000Y-139660000D02*
X226940000Y-139660000D01*
X421060000Y-159350000D02*
X422450000Y-159350000D01*
X284070000Y-139660000D02*
X315790000Y-139660000D01*
X350370000Y-82725000D02*
X350370000Y-107740000D01*
X422455000Y-150460000D02*
X422455000Y-159345000D01*
X265005000Y-139675000D02*
X265020000Y-139660000D01*
X188805000Y-139685000D02*
X188780000Y-139660000D01*
X150705000Y-150460000D02*
X150705000Y-139665000D01*
X265005000Y-150460000D02*
X265005000Y-139675000D01*
X315790000Y-159350000D02*
X356440000Y-159350000D01*
%TO.N,ROW_7*%
X122765000Y-138435000D02*
X122810000Y-138390000D01*
X384355000Y-150460000D02*
X384355000Y-138405000D01*
X89100000Y-138390000D02*
X94380000Y-138390000D01*
X274715000Y-138365000D02*
X274740000Y-138390000D01*
X94380000Y-138390000D02*
X122810000Y-138390000D01*
X312815000Y-129530000D02*
X312815000Y-138365000D01*
X94375000Y-138385000D02*
X94380000Y-138390000D01*
X274740000Y-138390000D02*
X312840000Y-138390000D01*
X312840000Y-138390000D02*
X346260000Y-138390000D01*
X151525000Y-138385000D02*
X151520000Y-138390000D01*
X122765000Y-150460000D02*
X122765000Y-138435000D01*
X346410000Y-82725000D02*
X346410000Y-108252000D01*
X28820000Y-138390000D02*
X89100000Y-138390000D01*
X122810000Y-138390000D02*
X151520000Y-138390000D01*
X151525000Y-129530000D02*
X151525000Y-138385000D01*
X429952000Y-138390000D02*
X429952000Y-108256000D01*
X394515000Y-138395000D02*
X394510000Y-138390000D01*
X346260000Y-138390000D02*
X384340000Y-138390000D01*
X89115000Y-138405000D02*
X89100000Y-138390000D01*
X189650000Y-138390000D02*
X274740000Y-138390000D01*
X189625000Y-138365000D02*
X189650000Y-138390000D01*
X429952000Y-108256000D02*
X346406000Y-108256000D01*
X312815000Y-138365000D02*
X312840000Y-138390000D01*
X28400000Y-138390000D02*
X28820000Y-138390000D01*
X346410000Y-108252000D02*
X346406000Y-108256000D01*
X394515000Y-150460000D02*
X394515000Y-138395000D01*
X94375000Y-129530000D02*
X94375000Y-138385000D01*
X274715000Y-129530000D02*
X274715000Y-138365000D01*
X21490000Y-138390000D02*
X21000000Y-137900000D01*
X384355000Y-138405000D02*
X384340000Y-138390000D01*
X28395000Y-129530000D02*
X28395000Y-138385000D01*
X151520000Y-138390000D02*
X189650000Y-138390000D01*
X384340000Y-138390000D02*
X392880000Y-138390000D01*
X28395000Y-138385000D02*
X28400000Y-138390000D01*
X392880000Y-138390000D02*
X429952000Y-138390000D01*
X346255000Y-150460000D02*
X346255000Y-138395000D01*
X346255000Y-138395000D02*
X346260000Y-138390000D01*
X189625000Y-129530000D02*
X189625000Y-138365000D01*
X392880000Y-138390000D02*
X394510000Y-138390000D01*
X89115000Y-150460000D02*
X89115000Y-138405000D01*
X28820000Y-138390000D02*
X21490000Y-138390000D01*
%TO.N,ROW_8*%
X284870000Y-118770000D02*
X339470000Y-118770000D01*
X75340000Y-118770000D02*
X122310000Y-118770000D01*
X375025000Y-118775000D02*
X375020000Y-118770000D01*
X122315000Y-118775000D02*
X122310000Y-118770000D01*
X75325000Y-118785000D02*
X75340000Y-118770000D01*
X373580000Y-118770000D02*
X413145000Y-118770000D01*
X179465000Y-118785000D02*
X179450000Y-118770000D01*
X132475000Y-129530000D02*
X132475000Y-118775000D01*
X217565000Y-118785000D02*
X217580000Y-118770000D01*
X122315000Y-129530000D02*
X122315000Y-118775000D01*
X122310000Y-118770000D02*
X132470000Y-118770000D01*
X56340000Y-118770000D02*
X26840000Y-118770000D01*
X179450000Y-118770000D02*
X217580000Y-118770000D01*
X342450000Y-82725000D02*
X342450000Y-108760000D01*
X26840000Y-118770000D02*
X21000000Y-118770000D01*
X217580000Y-118770000D02*
X227740000Y-118770000D01*
X284875000Y-118775000D02*
X284870000Y-118770000D01*
X227740000Y-118770000D02*
X246810000Y-118770000D01*
X284875000Y-129530000D02*
X284875000Y-118775000D01*
X375025000Y-129530000D02*
X375025000Y-118775000D01*
X339465000Y-118775000D02*
X339470000Y-118770000D01*
X373580000Y-118770000D02*
X375020000Y-118770000D01*
X413145000Y-119575000D02*
X413145000Y-118770000D01*
X413145000Y-129530000D02*
X413145000Y-119575000D01*
X246810000Y-118770000D02*
X284870000Y-118770000D01*
X132475000Y-118775000D02*
X132470000Y-118770000D01*
X179465000Y-129530000D02*
X179465000Y-118785000D01*
X227725000Y-118785000D02*
X227740000Y-118770000D01*
X56335000Y-118775000D02*
X56340000Y-118770000D01*
X26840000Y-118770000D02*
X25200000Y-118770000D01*
X342450000Y-108760000D02*
X342446000Y-108764000D01*
X75325000Y-129530000D02*
X75325000Y-118785000D01*
X227725000Y-129530000D02*
X227725000Y-118785000D01*
X413145000Y-108764000D02*
X342446000Y-108764000D01*
X246775000Y-129530000D02*
X246775000Y-118805000D01*
X132470000Y-118770000D02*
X179450000Y-118770000D01*
X56335000Y-129530000D02*
X56335000Y-118775000D01*
X246775000Y-118805000D02*
X246810000Y-118770000D01*
X217565000Y-129530000D02*
X217565000Y-118785000D01*
X339465000Y-129530000D02*
X339465000Y-118775000D01*
X413145000Y-119575000D02*
X413145000Y-108764000D01*
X56340000Y-118770000D02*
X75340000Y-118770000D01*
X339470000Y-118770000D02*
X373580000Y-118770000D01*
%TD*%
%TA.AperFunction,Conductor*%
%TO.N,GND*%
G36*
X381941621Y-80220502D02*
G01*
X381988114Y-80274158D01*
X381999500Y-80326500D01*
X381999500Y-102705072D01*
X381999415Y-102705500D01*
X381999458Y-102729998D01*
X381999458Y-102730000D01*
X381999459Y-102730000D01*
X381999500Y-102730099D01*
X381999617Y-102730383D01*
X382000000Y-102730541D01*
X382000002Y-102730539D01*
X382025014Y-102730524D01*
X382025014Y-102730528D01*
X382025158Y-102730500D01*
X435333500Y-102730500D01*
X435401621Y-102750502D01*
X435448114Y-102804158D01*
X435459500Y-102856500D01*
X435459500Y-224373500D01*
X435439498Y-224441621D01*
X435385842Y-224488114D01*
X435333500Y-224499500D01*
X15756500Y-224499500D01*
X15688379Y-224479498D01*
X15641886Y-224425842D01*
X15630500Y-224373500D01*
X15630500Y-222677864D01*
X19999500Y-222677864D01*
X19999502Y-222677885D01*
X20005908Y-222737480D01*
X20005908Y-222737481D01*
X20056201Y-222872326D01*
X20056203Y-222872329D01*
X20142453Y-222987546D01*
X20200061Y-223030671D01*
X20257669Y-223073796D01*
X20257671Y-223073796D01*
X20257673Y-223073798D01*
X20318030Y-223096309D01*
X20392514Y-223124090D01*
X20392517Y-223124091D01*
X20452127Y-223130500D01*
X21547872Y-223130499D01*
X21607483Y-223124091D01*
X21742331Y-223073796D01*
X21857546Y-222987546D01*
X21857548Y-222987543D01*
X21860769Y-222985132D01*
X21927289Y-222960321D01*
X21936279Y-222960000D01*
X433630000Y-222960000D01*
X433630000Y-202498120D01*
X433630990Y-202487644D01*
X433630741Y-202487629D01*
X433631237Y-202479722D01*
X433631239Y-202479714D01*
X433630123Y-202461979D01*
X433630000Y-202458046D01*
X433630000Y-119298566D01*
X433627500Y-119275309D01*
X433627500Y-105271225D01*
X433629733Y-105247611D01*
X433631238Y-105239720D01*
X433631238Y-105239719D01*
X433631239Y-105239714D01*
X433627623Y-105182244D01*
X433627500Y-105178308D01*
X433627500Y-105160523D01*
X433627499Y-105160520D01*
X433625266Y-105142844D01*
X433624900Y-105138973D01*
X433621284Y-105081484D01*
X433618798Y-105073833D01*
X433613623Y-105050678D01*
X433612617Y-105042714D01*
X433612616Y-105042713D01*
X433612616Y-105042707D01*
X433591417Y-104989164D01*
X433590076Y-104985439D01*
X433572291Y-104930700D01*
X433567980Y-104923908D01*
X433557214Y-104902778D01*
X433554253Y-104895297D01*
X433520411Y-104848718D01*
X433518185Y-104845443D01*
X433487339Y-104796837D01*
X433481472Y-104791327D01*
X433465793Y-104773543D01*
X433461064Y-104767035D01*
X433461065Y-104767035D01*
X433461063Y-104767033D01*
X433416699Y-104730331D01*
X433413744Y-104727726D01*
X433371771Y-104688311D01*
X433371767Y-104688307D01*
X433364704Y-104684424D01*
X433345097Y-104671098D01*
X433338904Y-104665975D01*
X433338903Y-104665974D01*
X433317035Y-104655683D01*
X433286823Y-104641466D01*
X433283297Y-104639670D01*
X433264163Y-104629151D01*
X433232834Y-104611928D01*
X433231599Y-104611611D01*
X433225034Y-104609925D01*
X433202724Y-104601892D01*
X433195449Y-104598468D01*
X433138907Y-104587682D01*
X433135044Y-104586819D01*
X433079272Y-104572500D01*
X433071225Y-104572500D01*
X433047616Y-104570268D01*
X433039714Y-104568761D01*
X433039710Y-104568761D01*
X433024459Y-104569720D01*
X432982243Y-104572376D01*
X432978309Y-104572500D01*
X370923500Y-104572500D01*
X370855379Y-104552498D01*
X370808886Y-104498842D01*
X370797500Y-104446500D01*
X370797500Y-84052923D01*
X370817502Y-83984802D01*
X370863531Y-83942109D01*
X370883192Y-83931469D01*
X370938626Y-83901470D01*
X371121784Y-83758913D01*
X371200323Y-83673597D01*
X372722000Y-83673597D01*
X372728505Y-83734093D01*
X372779555Y-83870964D01*
X372779555Y-83870965D01*
X372867095Y-83987904D01*
X372984034Y-84075444D01*
X373120906Y-84126494D01*
X373181402Y-84132999D01*
X373181415Y-84133000D01*
X373876000Y-84133000D01*
X373875999Y-83440412D01*
X373896001Y-83372291D01*
X373949657Y-83325798D01*
X374018444Y-83315490D01*
X374090677Y-83325000D01*
X374090684Y-83325000D01*
X374169316Y-83325000D01*
X374169323Y-83325000D01*
X374241555Y-83315490D01*
X374311702Y-83326429D01*
X374364801Y-83373557D01*
X374384000Y-83440412D01*
X374384000Y-84133000D01*
X375078585Y-84133000D01*
X375078597Y-84132999D01*
X375139093Y-84126494D01*
X375275964Y-84075444D01*
X375275965Y-84075444D01*
X375392904Y-83987904D01*
X375480444Y-83870965D01*
X375480444Y-83870964D01*
X375531494Y-83734093D01*
X375537999Y-83673597D01*
X376682000Y-83673597D01*
X376688505Y-83734093D01*
X376739555Y-83870964D01*
X376739555Y-83870965D01*
X376827095Y-83987904D01*
X376944034Y-84075444D01*
X377080906Y-84126494D01*
X377141402Y-84132999D01*
X377141415Y-84133000D01*
X377836000Y-84133000D01*
X377836000Y-83440412D01*
X377856002Y-83372291D01*
X377909658Y-83325798D01*
X377978444Y-83315490D01*
X378050677Y-83325000D01*
X378050684Y-83325000D01*
X378129316Y-83325000D01*
X378129323Y-83325000D01*
X378201555Y-83315490D01*
X378271702Y-83326429D01*
X378324801Y-83373557D01*
X378344000Y-83440412D01*
X378344000Y-84133000D01*
X379038585Y-84133000D01*
X379038597Y-84132999D01*
X379099093Y-84126494D01*
X379235964Y-84075444D01*
X379235965Y-84075444D01*
X379352904Y-83987904D01*
X379440444Y-83870965D01*
X379440444Y-83870964D01*
X379491494Y-83734093D01*
X379497999Y-83673597D01*
X379498000Y-83673585D01*
X379498000Y-82979000D01*
X378805413Y-82979000D01*
X378737292Y-82958998D01*
X378690799Y-82905342D01*
X378680491Y-82836554D01*
X378695177Y-82725001D01*
X378695177Y-82724998D01*
X378680491Y-82613446D01*
X378691430Y-82543297D01*
X378738559Y-82490199D01*
X378805413Y-82471000D01*
X379498000Y-82471000D01*
X379498000Y-81776414D01*
X379497999Y-81776402D01*
X379491494Y-81715906D01*
X379440444Y-81579035D01*
X379440444Y-81579034D01*
X379352904Y-81462095D01*
X379235965Y-81374555D01*
X379099093Y-81323505D01*
X379038597Y-81317000D01*
X378344000Y-81317000D01*
X378343999Y-82009587D01*
X378323997Y-82077708D01*
X378270341Y-82124201D01*
X378201554Y-82134509D01*
X378129327Y-82125000D01*
X378129323Y-82125000D01*
X378050677Y-82125000D01*
X378050672Y-82125000D01*
X377978445Y-82134509D01*
X377908296Y-82123569D01*
X377855198Y-82076441D01*
X377836000Y-82009587D01*
X377836000Y-81317000D01*
X377141402Y-81317000D01*
X377080906Y-81323505D01*
X376944035Y-81374555D01*
X376944034Y-81374555D01*
X376827095Y-81462095D01*
X376739555Y-81579034D01*
X376739555Y-81579035D01*
X376688505Y-81715906D01*
X376682000Y-81776402D01*
X376682000Y-82471000D01*
X377374587Y-82471000D01*
X377442708Y-82491002D01*
X377489201Y-82544658D01*
X377499509Y-82613446D01*
X377484822Y-82724998D01*
X377484822Y-82725001D01*
X377499509Y-82836554D01*
X377488570Y-82906703D01*
X377441441Y-82959801D01*
X377374587Y-82979000D01*
X376682000Y-82979000D01*
X376682000Y-83673597D01*
X375537999Y-83673597D01*
X375538000Y-83673585D01*
X375538000Y-82979000D01*
X374845413Y-82979000D01*
X374777292Y-82958998D01*
X374730799Y-82905342D01*
X374720491Y-82836554D01*
X374735177Y-82725001D01*
X374735177Y-82724998D01*
X374720491Y-82613446D01*
X374731430Y-82543297D01*
X374778559Y-82490199D01*
X374845413Y-82471000D01*
X375538000Y-82471000D01*
X375538000Y-81776414D01*
X375537999Y-81776402D01*
X375531494Y-81715906D01*
X375480444Y-81579035D01*
X375480444Y-81579034D01*
X375392904Y-81462095D01*
X375275965Y-81374555D01*
X375139093Y-81323505D01*
X375078597Y-81317000D01*
X374384000Y-81317000D01*
X374383999Y-82009587D01*
X374363997Y-82077708D01*
X374310341Y-82124201D01*
X374241554Y-82134509D01*
X374169327Y-82125000D01*
X374169323Y-82125000D01*
X374090677Y-82125000D01*
X374090672Y-82125000D01*
X374018445Y-82134509D01*
X373948296Y-82123569D01*
X373895198Y-82076441D01*
X373876000Y-82009587D01*
X373876000Y-81317000D01*
X373181402Y-81317000D01*
X373120906Y-81323505D01*
X372984035Y-81374555D01*
X372984034Y-81374555D01*
X372867095Y-81462095D01*
X372779555Y-81579034D01*
X372779555Y-81579035D01*
X372728505Y-81715906D01*
X372722000Y-81776402D01*
X372722000Y-82471000D01*
X373414587Y-82471000D01*
X373482708Y-82491002D01*
X373529201Y-82544658D01*
X373539509Y-82613446D01*
X373524822Y-82724998D01*
X373524822Y-82725001D01*
X373539509Y-82836554D01*
X373528570Y-82906703D01*
X373481441Y-82959801D01*
X373414587Y-82979000D01*
X372722000Y-82979000D01*
X372722000Y-83673597D01*
X371200323Y-83673597D01*
X371278979Y-83588153D01*
X371405924Y-83393849D01*
X371499157Y-83181300D01*
X371556134Y-82956305D01*
X371575300Y-82725000D01*
X371556134Y-82493695D01*
X371556133Y-82493691D01*
X371556132Y-82493685D01*
X371499157Y-82268700D01*
X371499155Y-82268696D01*
X371405924Y-82056151D01*
X371278981Y-81861850D01*
X371278980Y-81861849D01*
X371278979Y-81861847D01*
X371121784Y-81691087D01*
X370938626Y-81548530D01*
X370938625Y-81548529D01*
X370734502Y-81438063D01*
X370734500Y-81438062D01*
X370514985Y-81362703D01*
X370514978Y-81362701D01*
X370417000Y-81346352D01*
X370286049Y-81324500D01*
X370053951Y-81324500D01*
X369939383Y-81343618D01*
X369825021Y-81362701D01*
X369825014Y-81362703D01*
X369605499Y-81438062D01*
X369605497Y-81438063D01*
X369401374Y-81548529D01*
X369401373Y-81548530D01*
X369218213Y-81691089D01*
X369061018Y-81861850D01*
X368934075Y-82056151D01*
X368840844Y-82268696D01*
X368840842Y-82268700D01*
X368783867Y-82493685D01*
X368783866Y-82493691D01*
X368764700Y-82725000D01*
X368783866Y-82956308D01*
X368783867Y-82956314D01*
X368840842Y-83181299D01*
X368840844Y-83181303D01*
X368934075Y-83393848D01*
X368940418Y-83403557D01*
X369061021Y-83588153D01*
X369218216Y-83758913D01*
X369362180Y-83870964D01*
X369401374Y-83901470D01*
X369401376Y-83901471D01*
X369476469Y-83942109D01*
X369526860Y-83992122D01*
X369542500Y-84052923D01*
X369542500Y-104956500D01*
X369522498Y-105024621D01*
X369468842Y-105071114D01*
X369416500Y-105082500D01*
X366963500Y-105082500D01*
X366895379Y-105062498D01*
X366848886Y-105008842D01*
X366837500Y-104956500D01*
X366837500Y-84052923D01*
X366857502Y-83984802D01*
X366903531Y-83942109D01*
X366923192Y-83931469D01*
X366978626Y-83901470D01*
X367161784Y-83758913D01*
X367318979Y-83588153D01*
X367445924Y-83393849D01*
X367539157Y-83181300D01*
X367596134Y-82956305D01*
X367615300Y-82725000D01*
X367596134Y-82493695D01*
X367596133Y-82493691D01*
X367596132Y-82493685D01*
X367539157Y-82268700D01*
X367539155Y-82268696D01*
X367445924Y-82056151D01*
X367318981Y-81861850D01*
X367318980Y-81861849D01*
X367318979Y-81861847D01*
X367161784Y-81691087D01*
X366978626Y-81548530D01*
X366978625Y-81548529D01*
X366774502Y-81438063D01*
X366774500Y-81438062D01*
X366554985Y-81362703D01*
X366554978Y-81362701D01*
X366457000Y-81346352D01*
X366326049Y-81324500D01*
X366093951Y-81324500D01*
X365979383Y-81343618D01*
X365865021Y-81362701D01*
X365865014Y-81362703D01*
X365645499Y-81438062D01*
X365645497Y-81438063D01*
X365441374Y-81548529D01*
X365441373Y-81548530D01*
X365258213Y-81691089D01*
X365101018Y-81861850D01*
X364974075Y-82056151D01*
X364880844Y-82268696D01*
X364880842Y-82268700D01*
X364823867Y-82493685D01*
X364823866Y-82493691D01*
X364804700Y-82725000D01*
X364823866Y-82956308D01*
X364823867Y-82956314D01*
X364880842Y-83181299D01*
X364880844Y-83181303D01*
X364974075Y-83393848D01*
X364980418Y-83403557D01*
X365101021Y-83588153D01*
X365258216Y-83758913D01*
X365402180Y-83870964D01*
X365441374Y-83901470D01*
X365441376Y-83901471D01*
X365516469Y-83942109D01*
X365566860Y-83992122D01*
X365582500Y-84052923D01*
X365582500Y-105466500D01*
X365562498Y-105534621D01*
X365508842Y-105581114D01*
X365456500Y-105592500D01*
X363003500Y-105592500D01*
X362935379Y-105572498D01*
X362888886Y-105518842D01*
X362877500Y-105466500D01*
X362877500Y-84052923D01*
X362897502Y-83984802D01*
X362943531Y-83942109D01*
X362963192Y-83931469D01*
X363018626Y-83901470D01*
X363201784Y-83758913D01*
X363358979Y-83588153D01*
X363485924Y-83393849D01*
X363579157Y-83181300D01*
X363636134Y-82956305D01*
X363655300Y-82725000D01*
X363636134Y-82493695D01*
X363636133Y-82493691D01*
X363636132Y-82493685D01*
X363579157Y-82268700D01*
X363579155Y-82268696D01*
X363485924Y-82056151D01*
X363358981Y-81861850D01*
X363358980Y-81861849D01*
X363358979Y-81861847D01*
X363201784Y-81691087D01*
X363018626Y-81548530D01*
X363018625Y-81548529D01*
X362814502Y-81438063D01*
X362814500Y-81438062D01*
X362594985Y-81362703D01*
X362594978Y-81362701D01*
X362497000Y-81346352D01*
X362366049Y-81324500D01*
X362133951Y-81324500D01*
X362019383Y-81343618D01*
X361905021Y-81362701D01*
X361905014Y-81362703D01*
X361685499Y-81438062D01*
X361685497Y-81438063D01*
X361481374Y-81548529D01*
X361481373Y-81548530D01*
X361298213Y-81691089D01*
X361141018Y-81861850D01*
X361014075Y-82056151D01*
X360920844Y-82268696D01*
X360920842Y-82268700D01*
X360863867Y-82493685D01*
X360863866Y-82493691D01*
X360844700Y-82724999D01*
X360863866Y-82956308D01*
X360863867Y-82956314D01*
X360920842Y-83181299D01*
X360920844Y-83181303D01*
X361014075Y-83393848D01*
X361020418Y-83403557D01*
X361141021Y-83588153D01*
X361298216Y-83758913D01*
X361442180Y-83870964D01*
X361481374Y-83901470D01*
X361481376Y-83901471D01*
X361556469Y-83942109D01*
X361606860Y-83992122D01*
X361622500Y-84052923D01*
X361622500Y-105974500D01*
X361602498Y-106042621D01*
X361548842Y-106089114D01*
X361496500Y-106100500D01*
X359043500Y-106100500D01*
X358975379Y-106080498D01*
X358928886Y-106026842D01*
X358917500Y-105974500D01*
X358917500Y-84052923D01*
X358937502Y-83984802D01*
X358983531Y-83942109D01*
X359003192Y-83931469D01*
X359058626Y-83901470D01*
X359241784Y-83758913D01*
X359398979Y-83588153D01*
X359525924Y-83393849D01*
X359619157Y-83181300D01*
X359676134Y-82956305D01*
X359695300Y-82725000D01*
X359676134Y-82493695D01*
X359676133Y-82493691D01*
X359676132Y-82493685D01*
X359619157Y-82268700D01*
X359619155Y-82268696D01*
X359525924Y-82056151D01*
X359398981Y-81861850D01*
X359398980Y-81861849D01*
X359398979Y-81861847D01*
X359241784Y-81691087D01*
X359058626Y-81548530D01*
X359058625Y-81548529D01*
X358854502Y-81438063D01*
X358854500Y-81438062D01*
X358634985Y-81362703D01*
X358634978Y-81362701D01*
X358537000Y-81346352D01*
X358406049Y-81324500D01*
X358173951Y-81324500D01*
X358059383Y-81343618D01*
X357945021Y-81362701D01*
X357945014Y-81362703D01*
X357725499Y-81438062D01*
X357725497Y-81438063D01*
X357521374Y-81548529D01*
X357521373Y-81548530D01*
X357338213Y-81691089D01*
X357181018Y-81861850D01*
X357054075Y-82056151D01*
X356960844Y-82268696D01*
X356960842Y-82268700D01*
X356903867Y-82493685D01*
X356903866Y-82493691D01*
X356884700Y-82725000D01*
X356903866Y-82956308D01*
X356903867Y-82956314D01*
X356960842Y-83181299D01*
X356960844Y-83181303D01*
X357054075Y-83393848D01*
X357060418Y-83403557D01*
X357181021Y-83588153D01*
X357338216Y-83758913D01*
X357482180Y-83870964D01*
X357521374Y-83901470D01*
X357521376Y-83901471D01*
X357596469Y-83942109D01*
X357646860Y-83992122D01*
X357662500Y-84052923D01*
X357662500Y-106486500D01*
X357642498Y-106554621D01*
X357588842Y-106601114D01*
X357536500Y-106612500D01*
X355083500Y-106612500D01*
X355015379Y-106592498D01*
X354968886Y-106538842D01*
X354957500Y-106486500D01*
X354957500Y-84052923D01*
X354977502Y-83984802D01*
X355023531Y-83942109D01*
X355043192Y-83931469D01*
X355098626Y-83901470D01*
X355281784Y-83758913D01*
X355438979Y-83588153D01*
X355565924Y-83393849D01*
X355659157Y-83181300D01*
X355716134Y-82956305D01*
X355735300Y-82725000D01*
X355716134Y-82493695D01*
X355716133Y-82493691D01*
X355716132Y-82493685D01*
X355659157Y-82268700D01*
X355659155Y-82268696D01*
X355565924Y-82056151D01*
X355438981Y-81861850D01*
X355438980Y-81861849D01*
X355438979Y-81861847D01*
X355281784Y-81691087D01*
X355098626Y-81548530D01*
X355098625Y-81548529D01*
X354894502Y-81438063D01*
X354894500Y-81438062D01*
X354674985Y-81362703D01*
X354674978Y-81362701D01*
X354577000Y-81346352D01*
X354446049Y-81324500D01*
X354213951Y-81324500D01*
X354099383Y-81343618D01*
X353985021Y-81362701D01*
X353985014Y-81362703D01*
X353765499Y-81438062D01*
X353765497Y-81438063D01*
X353561374Y-81548529D01*
X353561373Y-81548530D01*
X353378213Y-81691089D01*
X353221018Y-81861850D01*
X353094075Y-82056151D01*
X353000844Y-82268696D01*
X353000842Y-82268700D01*
X352943867Y-82493685D01*
X352943866Y-82493691D01*
X352924700Y-82725000D01*
X352943866Y-82956308D01*
X352943867Y-82956314D01*
X353000842Y-83181299D01*
X353000844Y-83181303D01*
X353094075Y-83393848D01*
X353100418Y-83403557D01*
X353221021Y-83588153D01*
X353378216Y-83758913D01*
X353522180Y-83870964D01*
X353561374Y-83901470D01*
X353561376Y-83901471D01*
X353636469Y-83942109D01*
X353686860Y-83992122D01*
X353702500Y-84052923D01*
X353702500Y-106994500D01*
X353682498Y-107062621D01*
X353628842Y-107109114D01*
X353576500Y-107120500D01*
X351123500Y-107120500D01*
X351055379Y-107100498D01*
X351008886Y-107046842D01*
X350997500Y-106994500D01*
X350997500Y-84052923D01*
X351017502Y-83984802D01*
X351063531Y-83942109D01*
X351083192Y-83931469D01*
X351138626Y-83901470D01*
X351321784Y-83758913D01*
X351478979Y-83588153D01*
X351605924Y-83393849D01*
X351699157Y-83181300D01*
X351756134Y-82956305D01*
X351775300Y-82725000D01*
X351756134Y-82493695D01*
X351756133Y-82493691D01*
X351756132Y-82493685D01*
X351699157Y-82268700D01*
X351699155Y-82268696D01*
X351605924Y-82056151D01*
X351478981Y-81861850D01*
X351478980Y-81861849D01*
X351478979Y-81861847D01*
X351321784Y-81691087D01*
X351138626Y-81548530D01*
X351138625Y-81548529D01*
X350934502Y-81438063D01*
X350934500Y-81438062D01*
X350714985Y-81362703D01*
X350714978Y-81362701D01*
X350617000Y-81346352D01*
X350486049Y-81324500D01*
X350253951Y-81324500D01*
X350139383Y-81343618D01*
X350025021Y-81362701D01*
X350025014Y-81362703D01*
X349805499Y-81438062D01*
X349805497Y-81438063D01*
X349601374Y-81548529D01*
X349601373Y-81548530D01*
X349418213Y-81691089D01*
X349261018Y-81861850D01*
X349134075Y-82056151D01*
X349040844Y-82268696D01*
X349040842Y-82268700D01*
X348983867Y-82493685D01*
X348983866Y-82493691D01*
X348964700Y-82725000D01*
X348983866Y-82956308D01*
X348983867Y-82956314D01*
X349040842Y-83181299D01*
X349040844Y-83181303D01*
X349134075Y-83393848D01*
X349140418Y-83403557D01*
X349261021Y-83588153D01*
X349418216Y-83758913D01*
X349562180Y-83870964D01*
X349601374Y-83901470D01*
X349601376Y-83901471D01*
X349676469Y-83942109D01*
X349726860Y-83992122D01*
X349742500Y-84052923D01*
X349742500Y-107502500D01*
X349722498Y-107570621D01*
X349668842Y-107617114D01*
X349616500Y-107628500D01*
X347163500Y-107628500D01*
X347095379Y-107608498D01*
X347048886Y-107554842D01*
X347037500Y-107502500D01*
X347037500Y-84052923D01*
X347057502Y-83984802D01*
X347103531Y-83942109D01*
X347123192Y-83931469D01*
X347178626Y-83901470D01*
X347361784Y-83758913D01*
X347518979Y-83588153D01*
X347645924Y-83393849D01*
X347739157Y-83181300D01*
X347796134Y-82956305D01*
X347815300Y-82725000D01*
X347796134Y-82493695D01*
X347796133Y-82493691D01*
X347796132Y-82493685D01*
X347739157Y-82268700D01*
X347739155Y-82268696D01*
X347645924Y-82056151D01*
X347518981Y-81861850D01*
X347518980Y-81861849D01*
X347518979Y-81861847D01*
X347361784Y-81691087D01*
X347178626Y-81548530D01*
X347178625Y-81548529D01*
X346974502Y-81438063D01*
X346974500Y-81438062D01*
X346754985Y-81362703D01*
X346754978Y-81362701D01*
X346657000Y-81346352D01*
X346526049Y-81324500D01*
X346293951Y-81324500D01*
X346179383Y-81343618D01*
X346065021Y-81362701D01*
X346065014Y-81362703D01*
X345845499Y-81438062D01*
X345845497Y-81438063D01*
X345641374Y-81548529D01*
X345641373Y-81548530D01*
X345458213Y-81691089D01*
X345301018Y-81861850D01*
X345174075Y-82056151D01*
X345080844Y-82268696D01*
X345080842Y-82268700D01*
X345023867Y-82493685D01*
X345023866Y-82493691D01*
X345004700Y-82724999D01*
X345023866Y-82956308D01*
X345023867Y-82956314D01*
X345080842Y-83181299D01*
X345080844Y-83181303D01*
X345174075Y-83393848D01*
X345180418Y-83403557D01*
X345301021Y-83588153D01*
X345458216Y-83758913D01*
X345602180Y-83870964D01*
X345641374Y-83901470D01*
X345641376Y-83901471D01*
X345716469Y-83942109D01*
X345766860Y-83992122D01*
X345782500Y-84052923D01*
X345782500Y-108010500D01*
X345762498Y-108078621D01*
X345708842Y-108125114D01*
X345656500Y-108136500D01*
X343203500Y-108136500D01*
X343135379Y-108116498D01*
X343088886Y-108062842D01*
X343077500Y-108010500D01*
X343077500Y-84052923D01*
X343097502Y-83984802D01*
X343143531Y-83942109D01*
X343163192Y-83931469D01*
X343218626Y-83901470D01*
X343401784Y-83758913D01*
X343558979Y-83588153D01*
X343685924Y-83393849D01*
X343779157Y-83181300D01*
X343836134Y-82956305D01*
X343855300Y-82725000D01*
X343836134Y-82493695D01*
X343836133Y-82493691D01*
X343836132Y-82493685D01*
X343779157Y-82268700D01*
X343779155Y-82268696D01*
X343685924Y-82056151D01*
X343558981Y-81861850D01*
X343558980Y-81861849D01*
X343558979Y-81861847D01*
X343401784Y-81691087D01*
X343218626Y-81548530D01*
X343218625Y-81548529D01*
X343014502Y-81438063D01*
X343014500Y-81438062D01*
X342794985Y-81362703D01*
X342794978Y-81362701D01*
X342697000Y-81346352D01*
X342566049Y-81324500D01*
X342333951Y-81324500D01*
X342219383Y-81343618D01*
X342105021Y-81362701D01*
X342105014Y-81362703D01*
X341885499Y-81438062D01*
X341885497Y-81438063D01*
X341681374Y-81548529D01*
X341681373Y-81548530D01*
X341498213Y-81691089D01*
X341341018Y-81861850D01*
X341214075Y-82056151D01*
X341120844Y-82268696D01*
X341120842Y-82268700D01*
X341063867Y-82493685D01*
X341063866Y-82493691D01*
X341044700Y-82725000D01*
X341063866Y-82956308D01*
X341063867Y-82956314D01*
X341120842Y-83181299D01*
X341120844Y-83181303D01*
X341214075Y-83393848D01*
X341220418Y-83403557D01*
X341341021Y-83588153D01*
X341498216Y-83758913D01*
X341642180Y-83870964D01*
X341681374Y-83901470D01*
X341681376Y-83901471D01*
X341756469Y-83942109D01*
X341806860Y-83992122D01*
X341822500Y-84052923D01*
X341822500Y-108671807D01*
X341820268Y-108695416D01*
X341814761Y-108724286D01*
X341814761Y-108724291D01*
X341814263Y-108732199D01*
X341813960Y-108732179D01*
X341813770Y-108736207D01*
X341814074Y-108736217D01*
X341813825Y-108744135D01*
X341820356Y-108813229D01*
X341824715Y-108882512D01*
X341826200Y-108890295D01*
X341825903Y-108890351D01*
X341826722Y-108894304D01*
X341827017Y-108894239D01*
X341828746Y-108901974D01*
X341852256Y-108967277D01*
X341873708Y-109033299D01*
X341877083Y-109040469D01*
X341876805Y-109040599D01*
X341878577Y-109044215D01*
X341878849Y-109044077D01*
X341882447Y-109051139D01*
X341921462Y-109108547D01*
X341958662Y-109167165D01*
X341963712Y-109173269D01*
X341963477Y-109173463D01*
X341966091Y-109176523D01*
X341966320Y-109176322D01*
X341971565Y-109182271D01*
X342023626Y-109228169D01*
X342074232Y-109275692D01*
X342074233Y-109275693D01*
X342080644Y-109280351D01*
X342080464Y-109280597D01*
X342083759Y-109282912D01*
X342083930Y-109282661D01*
X342090484Y-109287115D01*
X342090487Y-109287116D01*
X342090489Y-109287118D01*
X342152333Y-109318629D01*
X342213166Y-109352072D01*
X342213167Y-109352072D01*
X342220536Y-109354990D01*
X342220423Y-109355273D01*
X342224192Y-109356697D01*
X342224296Y-109356411D01*
X342231749Y-109359094D01*
X342299484Y-109374234D01*
X342366722Y-109391499D01*
X342366726Y-109391499D01*
X342366728Y-109391500D01*
X342366730Y-109391500D01*
X342374591Y-109392493D01*
X342374552Y-109392796D01*
X342378557Y-109393238D01*
X342378586Y-109392934D01*
X342386477Y-109393680D01*
X342455860Y-109391500D01*
X412391500Y-109391500D01*
X412459621Y-109411502D01*
X412506114Y-109465158D01*
X412517500Y-109517500D01*
X412517500Y-118016500D01*
X412497498Y-118084621D01*
X412443842Y-118131114D01*
X412391500Y-118142500D01*
X375079302Y-118142500D01*
X375059592Y-118140949D01*
X375039867Y-118137825D01*
X375039866Y-118137825D01*
X374993370Y-118142220D01*
X374987437Y-118142500D01*
X339553187Y-118142500D01*
X339537442Y-118140761D01*
X339537414Y-118141066D01*
X339529522Y-118140319D01*
X339460140Y-118142500D01*
X284929302Y-118142500D01*
X284909592Y-118140949D01*
X284889867Y-118137825D01*
X284889866Y-118137825D01*
X284843370Y-118142220D01*
X284837437Y-118142500D01*
X246893186Y-118142500D01*
X246877442Y-118140762D01*
X246877414Y-118141066D01*
X246869521Y-118140319D01*
X246802206Y-118142435D01*
X246800154Y-118142500D01*
X227823187Y-118142500D01*
X227807443Y-118140762D01*
X227807415Y-118141066D01*
X227799522Y-118140319D01*
X227732206Y-118142435D01*
X227730154Y-118142500D01*
X217663187Y-118142500D01*
X217647443Y-118140762D01*
X217647415Y-118141066D01*
X217639522Y-118140319D01*
X217572206Y-118142435D01*
X217570154Y-118142500D01*
X179509302Y-118142500D01*
X179489592Y-118140949D01*
X179469867Y-118137825D01*
X179469866Y-118137825D01*
X179423370Y-118142220D01*
X179417437Y-118142500D01*
X132529302Y-118142500D01*
X132509592Y-118140949D01*
X132489867Y-118137825D01*
X132489866Y-118137825D01*
X132443370Y-118142220D01*
X132437437Y-118142500D01*
X122369302Y-118142500D01*
X122349592Y-118140949D01*
X122329867Y-118137825D01*
X122329866Y-118137825D01*
X122283370Y-118142220D01*
X122277437Y-118142500D01*
X75423187Y-118142500D01*
X75407443Y-118140762D01*
X75407415Y-118141066D01*
X75399522Y-118140319D01*
X75332206Y-118142435D01*
X75330154Y-118142500D01*
X56423187Y-118142500D01*
X56407442Y-118140761D01*
X56407414Y-118141066D01*
X56399522Y-118140319D01*
X56330140Y-118142500D01*
X22074109Y-118142500D01*
X22005988Y-118122498D01*
X21959495Y-118068842D01*
X21956053Y-118060531D01*
X21943797Y-118027671D01*
X21943796Y-118027669D01*
X21857546Y-117912454D01*
X21857544Y-117912453D01*
X21857544Y-117912452D01*
X21799613Y-117869086D01*
X21742331Y-117826204D01*
X21742329Y-117826203D01*
X21742326Y-117826201D01*
X21607483Y-117775909D01*
X21607486Y-117775909D01*
X21547873Y-117769500D01*
X20452135Y-117769500D01*
X20452114Y-117769502D01*
X20392519Y-117775908D01*
X20392518Y-117775908D01*
X20257673Y-117826201D01*
X20257670Y-117826203D01*
X20142453Y-117912453D01*
X20056203Y-118027670D01*
X20056201Y-118027673D01*
X20005909Y-118162515D01*
X19999500Y-118222121D01*
X19999500Y-119317864D01*
X19999502Y-119317885D01*
X20005908Y-119377480D01*
X20005908Y-119377481D01*
X20056201Y-119512326D01*
X20056203Y-119512329D01*
X20142453Y-119627546D01*
X20200061Y-119670671D01*
X20257669Y-119713796D01*
X20257671Y-119713796D01*
X20257673Y-119713798D01*
X20318030Y-119736309D01*
X20392514Y-119764090D01*
X20392517Y-119764091D01*
X20452127Y-119770500D01*
X21547872Y-119770499D01*
X21586360Y-119766361D01*
X21615320Y-119763249D01*
X21615533Y-119765236D01*
X21675915Y-119768471D01*
X21733502Y-119809995D01*
X21759498Y-119876061D01*
X21760000Y-119887295D01*
X21760000Y-136782705D01*
X21739998Y-136850826D01*
X21686342Y-136897319D01*
X21616068Y-136907423D01*
X21608879Y-136906059D01*
X21547873Y-136899500D01*
X20452135Y-136899500D01*
X20452114Y-136899502D01*
X20392519Y-136905908D01*
X20392518Y-136905908D01*
X20257673Y-136956201D01*
X20257670Y-136956203D01*
X20142453Y-137042453D01*
X20056203Y-137157670D01*
X20056201Y-137157673D01*
X20005909Y-137292515D01*
X19999500Y-137352121D01*
X19999500Y-138447864D01*
X19999502Y-138447885D01*
X20005908Y-138507480D01*
X20005908Y-138507481D01*
X20056201Y-138642326D01*
X20056203Y-138642329D01*
X20142453Y-138757546D01*
X20200061Y-138800670D01*
X20257669Y-138843796D01*
X20257671Y-138843796D01*
X20257673Y-138843798D01*
X20318030Y-138866309D01*
X20392514Y-138894090D01*
X20392517Y-138894091D01*
X20452127Y-138900500D01*
X21081182Y-138900499D01*
X21149303Y-138920501D01*
X21158407Y-138926939D01*
X21164496Y-138931662D01*
X21206063Y-138989218D01*
X21209915Y-139060110D01*
X21174828Y-139121830D01*
X21161332Y-139133158D01*
X21147513Y-139143198D01*
X21142549Y-139146459D01*
X21133257Y-139151954D01*
X21069119Y-139169500D01*
X20452135Y-139169500D01*
X20452114Y-139169502D01*
X20392519Y-139175908D01*
X20392518Y-139175908D01*
X20257673Y-139226201D01*
X20257670Y-139226203D01*
X20142453Y-139312453D01*
X20056203Y-139427670D01*
X20056201Y-139427673D01*
X20005909Y-139562515D01*
X19999500Y-139622121D01*
X19999500Y-140717864D01*
X19999502Y-140717885D01*
X20005908Y-140777480D01*
X20005908Y-140777481D01*
X20056201Y-140912326D01*
X20056203Y-140912329D01*
X20142453Y-141027546D01*
X20200061Y-141070670D01*
X20257669Y-141113796D01*
X20257671Y-141113796D01*
X20257673Y-141113798D01*
X20318030Y-141136309D01*
X20392514Y-141164090D01*
X20392517Y-141164091D01*
X20452127Y-141170500D01*
X21547872Y-141170499D01*
X21586360Y-141166361D01*
X21615320Y-141163249D01*
X21615533Y-141165236D01*
X21675915Y-141168471D01*
X21733502Y-141209995D01*
X21759498Y-141276061D01*
X21760000Y-141287295D01*
X21760000Y-157742705D01*
X21739998Y-157810826D01*
X21686342Y-157857319D01*
X21616068Y-157867423D01*
X21608879Y-157866059D01*
X21547873Y-157859500D01*
X20452135Y-157859500D01*
X20452114Y-157859502D01*
X20392519Y-157865908D01*
X20392518Y-157865908D01*
X20257673Y-157916201D01*
X20257670Y-157916203D01*
X20142453Y-158002453D01*
X20056203Y-158117670D01*
X20056201Y-158117673D01*
X20005909Y-158252515D01*
X19999500Y-158312121D01*
X19999500Y-159407864D01*
X19999502Y-159407885D01*
X20005908Y-159467480D01*
X20005908Y-159467481D01*
X20056201Y-159602326D01*
X20056203Y-159602329D01*
X20142453Y-159717546D01*
X20200061Y-159760670D01*
X20257669Y-159803796D01*
X20257671Y-159803796D01*
X20257673Y-159803798D01*
X20399901Y-159856845D01*
X20398699Y-159860066D01*
X20446805Y-159887349D01*
X20479824Y-159950200D01*
X20473620Y-160020925D01*
X20430164Y-160077069D01*
X20399206Y-160091291D01*
X20399901Y-160093155D01*
X20257673Y-160146201D01*
X20257670Y-160146203D01*
X20142453Y-160232453D01*
X20056203Y-160347670D01*
X20056201Y-160347673D01*
X20005909Y-160482515D01*
X19999500Y-160542121D01*
X19999500Y-161637864D01*
X19999502Y-161637885D01*
X20005908Y-161697480D01*
X20005908Y-161697481D01*
X20056201Y-161832326D01*
X20056203Y-161832329D01*
X20142453Y-161947546D01*
X20200061Y-161990671D01*
X20257669Y-162033796D01*
X20257671Y-162033796D01*
X20257673Y-162033798D01*
X20318030Y-162056309D01*
X20392514Y-162084090D01*
X20392517Y-162084091D01*
X20452127Y-162090500D01*
X21547872Y-162090499D01*
X21586360Y-162086361D01*
X21615320Y-162083249D01*
X21615533Y-162085236D01*
X21675915Y-162088471D01*
X21733502Y-162129995D01*
X21759498Y-162196061D01*
X21760000Y-162207295D01*
X21760000Y-180422705D01*
X21739998Y-180490826D01*
X21686342Y-180537319D01*
X21616068Y-180547423D01*
X21608879Y-180546059D01*
X21547873Y-180539500D01*
X20452135Y-180539500D01*
X20452114Y-180539502D01*
X20392519Y-180545908D01*
X20392518Y-180545908D01*
X20257673Y-180596201D01*
X20257670Y-180596203D01*
X20142453Y-180682453D01*
X20056203Y-180797670D01*
X20056201Y-180797673D01*
X20005909Y-180932515D01*
X19999500Y-180992121D01*
X19999500Y-182087864D01*
X19999502Y-182087885D01*
X20005908Y-182147480D01*
X20005908Y-182147481D01*
X20056201Y-182282326D01*
X20056203Y-182282329D01*
X20142453Y-182397546D01*
X20200061Y-182440671D01*
X20257669Y-182483796D01*
X20257671Y-182483796D01*
X20257673Y-182483798D01*
X20318030Y-182506309D01*
X20392514Y-182534090D01*
X20392517Y-182534091D01*
X20452127Y-182540500D01*
X21547872Y-182540499D01*
X21586360Y-182536361D01*
X21615320Y-182533249D01*
X21615533Y-182535236D01*
X21675915Y-182538471D01*
X21733502Y-182579995D01*
X21759498Y-182646061D01*
X21760000Y-182657295D01*
X21760000Y-201322705D01*
X21739998Y-201390826D01*
X21686342Y-201437319D01*
X21616068Y-201447423D01*
X21608879Y-201446059D01*
X21547873Y-201439500D01*
X20452135Y-201439500D01*
X20452114Y-201439502D01*
X20392519Y-201445908D01*
X20392518Y-201445908D01*
X20257673Y-201496201D01*
X20257670Y-201496203D01*
X20142453Y-201582453D01*
X20056203Y-201697670D01*
X20056201Y-201697673D01*
X20005909Y-201832515D01*
X19999500Y-201892121D01*
X19999500Y-202987864D01*
X19999502Y-202987885D01*
X20005908Y-203047480D01*
X20005908Y-203047481D01*
X20056201Y-203182326D01*
X20056203Y-203182329D01*
X20142453Y-203297546D01*
X20200061Y-203340670D01*
X20257669Y-203383796D01*
X20257671Y-203383796D01*
X20257673Y-203383798D01*
X20318030Y-203406309D01*
X20392514Y-203434090D01*
X20392517Y-203434091D01*
X20452127Y-203440500D01*
X21547872Y-203440499D01*
X21586360Y-203436361D01*
X21615320Y-203433249D01*
X21615533Y-203435236D01*
X21675915Y-203438471D01*
X21733502Y-203479995D01*
X21759498Y-203546061D01*
X21760000Y-203557295D01*
X21760000Y-221012705D01*
X21739998Y-221080826D01*
X21686342Y-221127319D01*
X21616068Y-221137423D01*
X21608879Y-221136059D01*
X21547873Y-221129500D01*
X20452135Y-221129500D01*
X20452114Y-221129502D01*
X20392519Y-221135908D01*
X20392518Y-221135908D01*
X20257673Y-221186201D01*
X20257670Y-221186203D01*
X20142453Y-221272453D01*
X20056203Y-221387670D01*
X20056201Y-221387673D01*
X20005909Y-221522515D01*
X19999500Y-221582121D01*
X19999500Y-222677864D01*
X15630500Y-222677864D01*
X15630500Y-102975500D01*
X310009415Y-102975500D01*
X310009458Y-102999998D01*
X310009458Y-103000000D01*
X310009459Y-103000000D01*
X310009500Y-103000099D01*
X310009617Y-103000383D01*
X310010000Y-103000541D01*
X310010002Y-103000539D01*
X310035014Y-103000524D01*
X310035014Y-103000528D01*
X310035158Y-103000500D01*
X323474842Y-103000500D01*
X323474985Y-103000528D01*
X323474986Y-103000524D01*
X323499997Y-103000539D01*
X323500000Y-103000541D01*
X323500383Y-103000383D01*
X323500500Y-103000099D01*
X323500541Y-103000000D01*
X323500540Y-102999998D01*
X323500541Y-102999998D01*
X323500584Y-102975500D01*
X323500500Y-102975072D01*
X323500500Y-97525157D01*
X323500528Y-97525014D01*
X323500524Y-97525014D01*
X323500539Y-97500002D01*
X323500541Y-97500000D01*
X323500383Y-97499617D01*
X323500099Y-97499500D01*
X323500000Y-97499459D01*
X323499999Y-97499459D01*
X323475048Y-97499459D01*
X323474842Y-97499500D01*
X310035158Y-97499500D01*
X310034952Y-97499459D01*
X310010001Y-97499459D01*
X310010000Y-97499459D01*
X310009901Y-97499500D01*
X310009617Y-97499617D01*
X310009459Y-97500000D01*
X310009476Y-97525014D01*
X310009471Y-97525014D01*
X310009500Y-97525157D01*
X310009500Y-102975072D01*
X310009415Y-102975500D01*
X15630500Y-102975500D01*
X15630500Y-102856500D01*
X15650502Y-102788379D01*
X15704158Y-102741886D01*
X15756500Y-102730500D01*
X244974842Y-102730500D01*
X244974985Y-102730528D01*
X244974986Y-102730524D01*
X244999997Y-102730539D01*
X245000000Y-102730541D01*
X245000383Y-102730383D01*
X245000500Y-102730099D01*
X245000541Y-102730000D01*
X245000540Y-102729998D01*
X245000541Y-102729998D01*
X245000584Y-102705500D01*
X245000500Y-102705072D01*
X245000500Y-94336000D01*
X247902000Y-94336000D01*
X252036486Y-94336000D01*
X252104607Y-94356002D01*
X252151100Y-94409658D01*
X252162256Y-94469607D01*
X252154974Y-94589997D01*
X252154974Y-94590002D01*
X252162256Y-94710393D01*
X252146403Y-94779597D01*
X252095653Y-94829244D01*
X252036486Y-94844000D01*
X247902001Y-94844000D01*
X247902001Y-97952291D01*
X247904756Y-98015429D01*
X247904757Y-98015440D01*
X247948689Y-98292812D01*
X247948689Y-98292813D01*
X248030791Y-98561354D01*
X248149476Y-98815877D01*
X248302421Y-99051391D01*
X248302424Y-99051395D01*
X248486662Y-99263337D01*
X248698604Y-99447575D01*
X248698608Y-99447578D01*
X248934122Y-99600523D01*
X249188645Y-99719208D01*
X249457187Y-99801310D01*
X249734565Y-99845242D01*
X249797708Y-99848000D01*
X254656000Y-99847999D01*
X254656000Y-97463513D01*
X254676002Y-97395392D01*
X254729658Y-97348899D01*
X254789606Y-97337743D01*
X254826909Y-97340000D01*
X254826911Y-97340000D01*
X254993089Y-97340000D01*
X254993091Y-97340000D01*
X255030392Y-97337743D01*
X255099594Y-97353594D01*
X255149243Y-97404344D01*
X255164000Y-97463513D01*
X255164000Y-99847999D01*
X260022291Y-99847999D01*
X260085429Y-99845243D01*
X260085440Y-99845242D01*
X260362812Y-99801310D01*
X260362813Y-99801310D01*
X260631354Y-99719208D01*
X260885877Y-99600523D01*
X261121391Y-99447578D01*
X261121395Y-99447575D01*
X261333337Y-99263337D01*
X261517575Y-99051395D01*
X261517578Y-99051391D01*
X261670523Y-98815877D01*
X261789208Y-98561354D01*
X261871310Y-98292813D01*
X261871310Y-98292812D01*
X261915242Y-98015434D01*
X261918000Y-97952292D01*
X261918000Y-94844000D01*
X257783514Y-94844000D01*
X257715393Y-94823998D01*
X257668900Y-94770342D01*
X257657744Y-94710393D01*
X257665026Y-94590002D01*
X257665026Y-94589997D01*
X257657744Y-94469607D01*
X257673597Y-94400403D01*
X257724347Y-94350756D01*
X257783514Y-94336000D01*
X261917999Y-94336000D01*
X261917999Y-91227709D01*
X261915243Y-91164570D01*
X261915242Y-91164559D01*
X261871310Y-90887187D01*
X261871310Y-90887186D01*
X261789208Y-90618645D01*
X261670523Y-90364122D01*
X261517578Y-90128608D01*
X261517575Y-90128604D01*
X261333337Y-89916662D01*
X261121395Y-89732424D01*
X261121391Y-89732421D01*
X260885877Y-89579476D01*
X260631354Y-89460791D01*
X260362812Y-89378689D01*
X260085434Y-89334757D01*
X260022292Y-89332000D01*
X255164000Y-89332000D01*
X255164000Y-91716486D01*
X255143998Y-91784607D01*
X255090342Y-91831100D01*
X255030393Y-91842256D01*
X254998894Y-91840351D01*
X254993091Y-91840000D01*
X254826909Y-91840000D01*
X254821105Y-91840351D01*
X254789607Y-91842256D01*
X254720403Y-91826403D01*
X254670755Y-91775652D01*
X254656000Y-91716486D01*
X254656000Y-89332000D01*
X249797709Y-89332001D01*
X249734570Y-89334756D01*
X249734559Y-89334757D01*
X249457187Y-89378689D01*
X249457186Y-89378689D01*
X249188645Y-89460791D01*
X248934122Y-89579476D01*
X248698608Y-89732421D01*
X248698604Y-89732424D01*
X248486662Y-89916662D01*
X248302424Y-90128604D01*
X248302421Y-90128608D01*
X248149476Y-90364122D01*
X248030791Y-90618645D01*
X247948689Y-90887186D01*
X247948689Y-90887187D01*
X247904757Y-91164565D01*
X247902000Y-91227708D01*
X247902000Y-94336000D01*
X245000500Y-94336000D01*
X245000500Y-83703597D01*
X261842000Y-83703597D01*
X261848505Y-83764093D01*
X261899555Y-83900964D01*
X261899555Y-83900965D01*
X261987095Y-84017904D01*
X262104034Y-84105444D01*
X262240906Y-84156494D01*
X262301402Y-84162999D01*
X262301415Y-84163000D01*
X262996000Y-84163000D01*
X262996000Y-83470412D01*
X263016002Y-83402291D01*
X263069658Y-83355798D01*
X263138444Y-83345490D01*
X263210677Y-83355000D01*
X263210684Y-83355000D01*
X263289316Y-83355000D01*
X263289323Y-83355000D01*
X263361555Y-83345490D01*
X263431702Y-83356429D01*
X263484801Y-83403557D01*
X263504000Y-83470412D01*
X263504000Y-84163000D01*
X264198585Y-84163000D01*
X264198597Y-84162999D01*
X264259093Y-84156494D01*
X264395964Y-84105444D01*
X264395965Y-84105444D01*
X264512904Y-84017904D01*
X264600444Y-83900965D01*
X264600444Y-83900964D01*
X264651494Y-83764093D01*
X264657999Y-83703597D01*
X265802000Y-83703597D01*
X265808505Y-83764093D01*
X265859555Y-83900964D01*
X265859555Y-83900965D01*
X265947095Y-84017904D01*
X266064034Y-84105444D01*
X266200906Y-84156494D01*
X266261402Y-84162999D01*
X266261415Y-84163000D01*
X266956000Y-84163000D01*
X266956000Y-83470412D01*
X266976002Y-83402291D01*
X267029658Y-83355798D01*
X267098444Y-83345490D01*
X267170677Y-83355000D01*
X267170684Y-83355000D01*
X267249316Y-83355000D01*
X267249323Y-83355000D01*
X267321555Y-83345490D01*
X267391702Y-83356429D01*
X267444801Y-83403557D01*
X267464000Y-83470412D01*
X267464000Y-84163000D01*
X268158585Y-84163000D01*
X268158597Y-84162999D01*
X268219093Y-84156494D01*
X268355964Y-84105444D01*
X268355965Y-84105444D01*
X268472904Y-84017904D01*
X268560444Y-83900965D01*
X268560444Y-83900964D01*
X268611494Y-83764093D01*
X268617999Y-83703597D01*
X268618000Y-83703585D01*
X268618000Y-83009000D01*
X267925413Y-83009000D01*
X267857292Y-82988998D01*
X267810799Y-82935342D01*
X267800491Y-82866554D01*
X267815177Y-82755001D01*
X267815177Y-82755000D01*
X269764700Y-82755000D01*
X269783866Y-82986308D01*
X269783867Y-82986314D01*
X269840842Y-83211299D01*
X269840844Y-83211303D01*
X269934075Y-83423848D01*
X269934076Y-83423849D01*
X270061021Y-83618153D01*
X270218216Y-83788913D01*
X270401373Y-83931469D01*
X270401374Y-83931470D01*
X270605497Y-84041936D01*
X270605499Y-84041937D01*
X270703102Y-84075444D01*
X270825019Y-84117298D01*
X271053951Y-84155500D01*
X271053955Y-84155500D01*
X271286045Y-84155500D01*
X271286049Y-84155500D01*
X271514981Y-84117298D01*
X271734503Y-84041936D01*
X271938626Y-83931470D01*
X272121784Y-83788913D01*
X272278979Y-83618153D01*
X272405924Y-83423849D01*
X272499157Y-83211300D01*
X272538083Y-83057588D01*
X272556132Y-82986314D01*
X272556133Y-82986308D01*
X272556134Y-82986305D01*
X272575300Y-82755000D01*
X273724700Y-82755000D01*
X273743866Y-82986308D01*
X273743867Y-82986314D01*
X273800842Y-83211299D01*
X273800844Y-83211303D01*
X273894075Y-83423848D01*
X273894076Y-83423849D01*
X274021021Y-83618153D01*
X274178216Y-83788913D01*
X274361373Y-83931469D01*
X274361374Y-83931470D01*
X274565497Y-84041936D01*
X274565499Y-84041937D01*
X274663102Y-84075444D01*
X274785019Y-84117298D01*
X275013951Y-84155500D01*
X275013955Y-84155500D01*
X275246045Y-84155500D01*
X275246049Y-84155500D01*
X275474981Y-84117298D01*
X275694503Y-84041936D01*
X275898626Y-83931470D01*
X276081784Y-83788913D01*
X276238979Y-83618153D01*
X276365924Y-83423849D01*
X276459157Y-83211300D01*
X276498083Y-83057588D01*
X276516132Y-82986314D01*
X276516133Y-82986308D01*
X276516134Y-82986305D01*
X276535300Y-82755000D01*
X277684700Y-82755000D01*
X277703866Y-82986308D01*
X277703867Y-82986314D01*
X277760842Y-83211299D01*
X277760844Y-83211303D01*
X277854075Y-83423848D01*
X277854076Y-83423849D01*
X277981021Y-83618153D01*
X278138216Y-83788913D01*
X278321373Y-83931469D01*
X278321374Y-83931470D01*
X278525497Y-84041936D01*
X278525499Y-84041937D01*
X278623102Y-84075444D01*
X278745019Y-84117298D01*
X278973951Y-84155500D01*
X278973955Y-84155500D01*
X279206045Y-84155500D01*
X279206049Y-84155500D01*
X279434981Y-84117298D01*
X279654503Y-84041936D01*
X279858626Y-83931470D01*
X280041784Y-83788913D01*
X280198979Y-83618153D01*
X280325924Y-83423849D01*
X280419157Y-83211300D01*
X280458083Y-83057588D01*
X280476132Y-82986314D01*
X280476133Y-82986308D01*
X280476134Y-82986305D01*
X280495300Y-82755000D01*
X281644700Y-82755000D01*
X281663866Y-82986308D01*
X281663867Y-82986314D01*
X281720842Y-83211299D01*
X281720844Y-83211303D01*
X281814075Y-83423848D01*
X281814076Y-83423849D01*
X281941021Y-83618153D01*
X282098216Y-83788913D01*
X282281373Y-83931469D01*
X282281374Y-83931470D01*
X282485497Y-84041936D01*
X282485499Y-84041937D01*
X282583102Y-84075444D01*
X282705019Y-84117298D01*
X282933951Y-84155500D01*
X282933955Y-84155500D01*
X283166045Y-84155500D01*
X283166049Y-84155500D01*
X283394981Y-84117298D01*
X283614503Y-84041936D01*
X283818626Y-83931470D01*
X284001784Y-83788913D01*
X284158979Y-83618153D01*
X284285924Y-83423849D01*
X284379157Y-83211300D01*
X284418083Y-83057588D01*
X284436132Y-82986314D01*
X284436133Y-82986308D01*
X284436134Y-82986305D01*
X284455300Y-82755000D01*
X285604700Y-82755000D01*
X285623866Y-82986308D01*
X285623867Y-82986314D01*
X285680842Y-83211299D01*
X285680844Y-83211303D01*
X285774075Y-83423848D01*
X285774076Y-83423849D01*
X285901021Y-83618153D01*
X286058216Y-83788913D01*
X286241373Y-83931469D01*
X286241374Y-83931470D01*
X286445497Y-84041936D01*
X286445499Y-84041937D01*
X286543102Y-84075444D01*
X286665019Y-84117298D01*
X286893951Y-84155500D01*
X286893955Y-84155500D01*
X287126045Y-84155500D01*
X287126049Y-84155500D01*
X287354981Y-84117298D01*
X287574503Y-84041936D01*
X287778626Y-83931470D01*
X287961784Y-83788913D01*
X288118979Y-83618153D01*
X288245924Y-83423849D01*
X288339157Y-83211300D01*
X288378083Y-83057588D01*
X288396132Y-82986314D01*
X288396133Y-82986308D01*
X288396134Y-82986305D01*
X288415300Y-82755000D01*
X289564700Y-82755000D01*
X289583866Y-82986308D01*
X289583867Y-82986314D01*
X289640842Y-83211299D01*
X289640844Y-83211303D01*
X289734075Y-83423848D01*
X289734076Y-83423849D01*
X289861021Y-83618153D01*
X290018216Y-83788913D01*
X290201373Y-83931469D01*
X290201374Y-83931470D01*
X290405497Y-84041936D01*
X290405499Y-84041937D01*
X290503102Y-84075444D01*
X290625019Y-84117298D01*
X290853951Y-84155500D01*
X290853955Y-84155500D01*
X291086045Y-84155500D01*
X291086049Y-84155500D01*
X291314981Y-84117298D01*
X291534503Y-84041936D01*
X291738626Y-83931470D01*
X291921784Y-83788913D01*
X292078979Y-83618153D01*
X292205924Y-83423849D01*
X292299157Y-83211300D01*
X292338083Y-83057588D01*
X292356132Y-82986314D01*
X292356133Y-82986308D01*
X292356134Y-82986305D01*
X292375300Y-82755000D01*
X293524700Y-82755000D01*
X293543866Y-82986308D01*
X293543867Y-82986314D01*
X293600842Y-83211299D01*
X293600844Y-83211303D01*
X293694075Y-83423848D01*
X293694076Y-83423849D01*
X293821021Y-83618153D01*
X293978216Y-83788913D01*
X294161373Y-83931469D01*
X294161374Y-83931470D01*
X294365497Y-84041936D01*
X294365499Y-84041937D01*
X294463102Y-84075444D01*
X294585019Y-84117298D01*
X294813951Y-84155500D01*
X294813955Y-84155500D01*
X295046045Y-84155500D01*
X295046049Y-84155500D01*
X295274981Y-84117298D01*
X295494503Y-84041936D01*
X295698626Y-83931470D01*
X295881784Y-83788913D01*
X296038979Y-83618153D01*
X296165924Y-83423849D01*
X296259157Y-83211300D01*
X296298083Y-83057588D01*
X296316132Y-82986314D01*
X296316133Y-82986308D01*
X296316134Y-82986305D01*
X296335300Y-82755000D01*
X297484700Y-82755000D01*
X297503866Y-82986308D01*
X297503867Y-82986314D01*
X297560842Y-83211299D01*
X297560844Y-83211303D01*
X297654075Y-83423848D01*
X297654076Y-83423849D01*
X297781021Y-83618153D01*
X297938216Y-83788913D01*
X298121373Y-83931469D01*
X298121374Y-83931470D01*
X298325497Y-84041936D01*
X298325499Y-84041937D01*
X298423102Y-84075444D01*
X298545019Y-84117298D01*
X298773951Y-84155500D01*
X298773955Y-84155500D01*
X299006045Y-84155500D01*
X299006049Y-84155500D01*
X299234981Y-84117298D01*
X299454503Y-84041936D01*
X299658626Y-83931470D01*
X299841784Y-83788913D01*
X299998979Y-83618153D01*
X300125924Y-83423849D01*
X300219157Y-83211300D01*
X300258083Y-83057588D01*
X300276132Y-82986314D01*
X300276133Y-82986308D01*
X300276134Y-82986305D01*
X300295300Y-82755000D01*
X301444700Y-82755000D01*
X301463866Y-82986308D01*
X301463867Y-82986314D01*
X301520842Y-83211299D01*
X301520844Y-83211303D01*
X301614075Y-83423848D01*
X301614076Y-83423849D01*
X301741021Y-83618153D01*
X301898216Y-83788913D01*
X302081373Y-83931469D01*
X302081374Y-83931470D01*
X302285497Y-84041936D01*
X302285499Y-84041937D01*
X302383102Y-84075444D01*
X302505019Y-84117298D01*
X302733951Y-84155500D01*
X302733955Y-84155500D01*
X302966045Y-84155500D01*
X302966049Y-84155500D01*
X303194981Y-84117298D01*
X303414503Y-84041936D01*
X303618626Y-83931470D01*
X303801784Y-83788913D01*
X303958979Y-83618153D01*
X304085924Y-83423849D01*
X304179157Y-83211300D01*
X304218083Y-83057588D01*
X304236132Y-82986314D01*
X304236133Y-82986308D01*
X304236134Y-82986305D01*
X304255300Y-82755000D01*
X304252814Y-82725000D01*
X305404700Y-82725000D01*
X305423866Y-82956308D01*
X305423867Y-82956314D01*
X305480842Y-83181299D01*
X305480844Y-83181303D01*
X305574075Y-83393848D01*
X305580418Y-83403557D01*
X305701021Y-83588153D01*
X305858216Y-83758913D01*
X306002180Y-83870964D01*
X306041373Y-83901469D01*
X306041374Y-83901470D01*
X306245497Y-84011936D01*
X306245499Y-84011937D01*
X306332884Y-84041936D01*
X306465019Y-84087298D01*
X306693951Y-84125500D01*
X306693955Y-84125500D01*
X306926045Y-84125500D01*
X306926049Y-84125500D01*
X307154981Y-84087298D01*
X307374503Y-84011936D01*
X307578626Y-83901470D01*
X307761784Y-83758913D01*
X307918979Y-83588153D01*
X308045924Y-83393849D01*
X308139157Y-83181300D01*
X308196134Y-82956305D01*
X308215300Y-82725000D01*
X309364700Y-82725000D01*
X309383866Y-82956308D01*
X309383867Y-82956314D01*
X309440842Y-83181299D01*
X309440844Y-83181303D01*
X309534075Y-83393848D01*
X309540418Y-83403557D01*
X309661021Y-83588153D01*
X309818216Y-83758913D01*
X309962180Y-83870964D01*
X310001373Y-83901469D01*
X310001374Y-83901470D01*
X310205497Y-84011936D01*
X310205499Y-84011937D01*
X310292884Y-84041936D01*
X310425019Y-84087298D01*
X310653951Y-84125500D01*
X310653955Y-84125500D01*
X310886045Y-84125500D01*
X310886049Y-84125500D01*
X311114981Y-84087298D01*
X311334503Y-84011936D01*
X311538626Y-83901470D01*
X311721784Y-83758913D01*
X311878979Y-83588153D01*
X312005924Y-83393849D01*
X312099157Y-83181300D01*
X312156134Y-82956305D01*
X312175300Y-82725000D01*
X312175300Y-82724999D01*
X313324700Y-82724999D01*
X313343866Y-82956308D01*
X313343867Y-82956314D01*
X313400842Y-83181299D01*
X313400844Y-83181303D01*
X313494075Y-83393848D01*
X313500418Y-83403557D01*
X313621021Y-83588153D01*
X313778216Y-83758913D01*
X313922180Y-83870964D01*
X313961373Y-83901469D01*
X313961374Y-83901470D01*
X314165497Y-84011936D01*
X314165499Y-84011937D01*
X314252884Y-84041936D01*
X314385019Y-84087298D01*
X314613951Y-84125500D01*
X314613955Y-84125500D01*
X314846045Y-84125500D01*
X314846049Y-84125500D01*
X315074981Y-84087298D01*
X315294503Y-84011936D01*
X315498626Y-83901470D01*
X315681784Y-83758913D01*
X315838979Y-83588153D01*
X315965924Y-83393849D01*
X316059157Y-83181300D01*
X316116134Y-82956305D01*
X316135300Y-82725000D01*
X316135300Y-82724999D01*
X317284700Y-82724999D01*
X317303866Y-82956308D01*
X317303867Y-82956314D01*
X317360842Y-83181299D01*
X317360844Y-83181303D01*
X317454075Y-83393848D01*
X317460418Y-83403557D01*
X317581021Y-83588153D01*
X317738216Y-83758913D01*
X317882180Y-83870964D01*
X317921373Y-83901469D01*
X317921374Y-83901470D01*
X318125497Y-84011936D01*
X318125499Y-84011937D01*
X318212884Y-84041936D01*
X318345019Y-84087298D01*
X318573951Y-84125500D01*
X318573955Y-84125500D01*
X318806045Y-84125500D01*
X318806049Y-84125500D01*
X319034981Y-84087298D01*
X319254503Y-84011936D01*
X319458626Y-83901470D01*
X319641784Y-83758913D01*
X319798979Y-83588153D01*
X319925924Y-83393849D01*
X320019157Y-83181300D01*
X320076134Y-82956305D01*
X320095300Y-82725000D01*
X321244700Y-82725000D01*
X321263866Y-82956308D01*
X321263867Y-82956314D01*
X321320842Y-83181299D01*
X321320844Y-83181303D01*
X321414075Y-83393848D01*
X321420418Y-83403557D01*
X321541021Y-83588153D01*
X321698216Y-83758913D01*
X321842180Y-83870964D01*
X321881373Y-83901469D01*
X321881374Y-83901470D01*
X322085497Y-84011936D01*
X322085499Y-84011937D01*
X322172884Y-84041936D01*
X322305019Y-84087298D01*
X322533951Y-84125500D01*
X322533955Y-84125500D01*
X322766045Y-84125500D01*
X322766049Y-84125500D01*
X322994981Y-84087298D01*
X323214503Y-84011936D01*
X323418626Y-83901470D01*
X323601784Y-83758913D01*
X323758979Y-83588153D01*
X323885924Y-83393849D01*
X323979157Y-83181300D01*
X324036134Y-82956305D01*
X324055300Y-82725000D01*
X325204700Y-82725000D01*
X325223866Y-82956308D01*
X325223867Y-82956314D01*
X325280842Y-83181299D01*
X325280844Y-83181303D01*
X325374075Y-83393848D01*
X325380418Y-83403557D01*
X325501021Y-83588153D01*
X325658216Y-83758913D01*
X325802180Y-83870964D01*
X325841373Y-83901469D01*
X325841374Y-83901470D01*
X326045497Y-84011936D01*
X326045499Y-84011937D01*
X326132884Y-84041936D01*
X326265019Y-84087298D01*
X326493951Y-84125500D01*
X326493955Y-84125500D01*
X326726045Y-84125500D01*
X326726049Y-84125500D01*
X326954981Y-84087298D01*
X327174503Y-84011936D01*
X327378626Y-83901470D01*
X327561784Y-83758913D01*
X327718979Y-83588153D01*
X327845924Y-83393849D01*
X327939157Y-83181300D01*
X327996134Y-82956305D01*
X328015300Y-82725000D01*
X328015300Y-82724999D01*
X329164700Y-82724999D01*
X329183866Y-82956308D01*
X329183867Y-82956314D01*
X329240842Y-83181299D01*
X329240844Y-83181303D01*
X329334075Y-83393848D01*
X329340418Y-83403557D01*
X329461021Y-83588153D01*
X329618216Y-83758913D01*
X329762180Y-83870964D01*
X329801373Y-83901469D01*
X329801374Y-83901470D01*
X330005497Y-84011936D01*
X330005499Y-84011937D01*
X330092884Y-84041936D01*
X330225019Y-84087298D01*
X330453951Y-84125500D01*
X330453955Y-84125500D01*
X330686045Y-84125500D01*
X330686049Y-84125500D01*
X330914981Y-84087298D01*
X331134503Y-84011936D01*
X331338626Y-83901470D01*
X331521784Y-83758913D01*
X331600323Y-83673597D01*
X333122000Y-83673597D01*
X333128505Y-83734093D01*
X333179555Y-83870964D01*
X333179555Y-83870965D01*
X333267095Y-83987904D01*
X333384034Y-84075444D01*
X333520906Y-84126494D01*
X333581402Y-84132999D01*
X333581415Y-84133000D01*
X334276000Y-84133000D01*
X334276000Y-83440412D01*
X334296002Y-83372291D01*
X334349658Y-83325798D01*
X334418444Y-83315490D01*
X334490677Y-83325000D01*
X334490684Y-83325000D01*
X334569316Y-83325000D01*
X334569323Y-83325000D01*
X334641554Y-83315490D01*
X334711701Y-83326429D01*
X334764800Y-83373557D01*
X334783999Y-83440412D01*
X334784000Y-84133000D01*
X335478585Y-84133000D01*
X335478597Y-84132999D01*
X335539093Y-84126494D01*
X335675964Y-84075444D01*
X335675965Y-84075444D01*
X335792904Y-83987904D01*
X335880444Y-83870965D01*
X335880444Y-83870964D01*
X335931494Y-83734093D01*
X335937999Y-83673597D01*
X337082000Y-83673597D01*
X337088505Y-83734093D01*
X337139555Y-83870964D01*
X337139555Y-83870965D01*
X337227095Y-83987904D01*
X337344034Y-84075444D01*
X337480906Y-84126494D01*
X337541402Y-84132999D01*
X337541415Y-84133000D01*
X338236000Y-84133000D01*
X338236000Y-83440412D01*
X338256002Y-83372291D01*
X338309658Y-83325798D01*
X338378444Y-83315490D01*
X338450677Y-83325000D01*
X338450684Y-83325000D01*
X338529316Y-83325000D01*
X338529323Y-83325000D01*
X338601555Y-83315490D01*
X338671702Y-83326429D01*
X338724801Y-83373557D01*
X338744000Y-83440412D01*
X338744000Y-84133000D01*
X339438585Y-84133000D01*
X339438597Y-84132999D01*
X339499093Y-84126494D01*
X339635964Y-84075444D01*
X339635965Y-84075444D01*
X339752904Y-83987904D01*
X339840444Y-83870965D01*
X339840444Y-83870964D01*
X339891494Y-83734093D01*
X339897999Y-83673597D01*
X339898000Y-83673585D01*
X339898000Y-82979000D01*
X339205413Y-82979000D01*
X339137292Y-82958998D01*
X339090799Y-82905342D01*
X339080491Y-82836554D01*
X339095177Y-82725001D01*
X339095177Y-82724998D01*
X339080491Y-82613446D01*
X339091430Y-82543297D01*
X339138559Y-82490199D01*
X339205413Y-82471000D01*
X339898000Y-82471000D01*
X339898000Y-81776414D01*
X339897999Y-81776402D01*
X339891494Y-81715906D01*
X339840444Y-81579035D01*
X339840444Y-81579034D01*
X339752904Y-81462095D01*
X339635965Y-81374555D01*
X339499093Y-81323505D01*
X339438597Y-81317000D01*
X338744000Y-81317000D01*
X338744000Y-82009587D01*
X338723998Y-82077708D01*
X338670342Y-82124201D01*
X338601555Y-82134509D01*
X338529327Y-82125000D01*
X338529323Y-82125000D01*
X338450677Y-82125000D01*
X338450672Y-82125000D01*
X338378445Y-82134509D01*
X338308296Y-82123569D01*
X338255198Y-82076441D01*
X338236000Y-82009587D01*
X338236000Y-81317000D01*
X337541402Y-81317000D01*
X337480906Y-81323505D01*
X337344035Y-81374555D01*
X337344034Y-81374555D01*
X337227095Y-81462095D01*
X337139555Y-81579034D01*
X337139555Y-81579035D01*
X337088505Y-81715906D01*
X337082000Y-81776402D01*
X337082000Y-82471000D01*
X337774587Y-82471000D01*
X337842708Y-82491002D01*
X337889201Y-82544658D01*
X337899509Y-82613446D01*
X337884822Y-82724998D01*
X337884822Y-82725001D01*
X337899509Y-82836554D01*
X337888570Y-82906703D01*
X337841441Y-82959801D01*
X337774587Y-82979000D01*
X337082000Y-82979000D01*
X337082000Y-83673597D01*
X335937999Y-83673597D01*
X335938000Y-83673585D01*
X335938000Y-82979000D01*
X335245413Y-82979000D01*
X335177292Y-82958998D01*
X335130799Y-82905342D01*
X335120491Y-82836554D01*
X335135177Y-82725001D01*
X335135177Y-82724998D01*
X335120491Y-82613446D01*
X335131430Y-82543297D01*
X335178559Y-82490199D01*
X335245413Y-82471000D01*
X335938000Y-82471000D01*
X335938000Y-81776414D01*
X335937999Y-81776402D01*
X335931494Y-81715906D01*
X335880444Y-81579035D01*
X335880444Y-81579034D01*
X335792904Y-81462095D01*
X335675965Y-81374555D01*
X335539093Y-81323505D01*
X335478597Y-81317000D01*
X334784000Y-81317000D01*
X334783999Y-82009587D01*
X334763997Y-82077708D01*
X334710341Y-82124201D01*
X334641554Y-82134509D01*
X334569327Y-82125000D01*
X334569323Y-82125000D01*
X334490677Y-82125000D01*
X334490672Y-82125000D01*
X334418444Y-82134509D01*
X334348295Y-82123569D01*
X334295197Y-82076440D01*
X334275999Y-82009587D01*
X334276000Y-81317000D01*
X333581402Y-81317000D01*
X333520906Y-81323505D01*
X333384035Y-81374555D01*
X333384034Y-81374555D01*
X333267095Y-81462095D01*
X333179555Y-81579034D01*
X333179555Y-81579035D01*
X333128505Y-81715906D01*
X333122000Y-81776402D01*
X333122000Y-82471000D01*
X333814587Y-82471000D01*
X333882708Y-82491002D01*
X333929201Y-82544658D01*
X333939509Y-82613446D01*
X333924822Y-82724998D01*
X333924822Y-82725001D01*
X333939509Y-82836554D01*
X333928570Y-82906703D01*
X333881441Y-82959801D01*
X333814587Y-82979000D01*
X333122000Y-82979000D01*
X333122000Y-83673597D01*
X331600323Y-83673597D01*
X331678979Y-83588153D01*
X331805924Y-83393849D01*
X331899157Y-83181300D01*
X331956134Y-82956305D01*
X331975300Y-82725000D01*
X331956134Y-82493695D01*
X331956133Y-82493691D01*
X331956132Y-82493685D01*
X331899157Y-82268700D01*
X331899155Y-82268696D01*
X331805924Y-82056151D01*
X331678981Y-81861850D01*
X331678980Y-81861849D01*
X331678979Y-81861847D01*
X331521784Y-81691087D01*
X331338626Y-81548530D01*
X331338625Y-81548529D01*
X331134502Y-81438063D01*
X331134500Y-81438062D01*
X330914985Y-81362703D01*
X330914978Y-81362701D01*
X330817000Y-81346352D01*
X330686049Y-81324500D01*
X330453951Y-81324500D01*
X330339383Y-81343618D01*
X330225021Y-81362701D01*
X330225014Y-81362703D01*
X330005499Y-81438062D01*
X330005497Y-81438063D01*
X329801374Y-81548529D01*
X329801373Y-81548530D01*
X329618213Y-81691089D01*
X329461018Y-81861850D01*
X329334075Y-82056151D01*
X329240844Y-82268696D01*
X329240842Y-82268700D01*
X329183867Y-82493685D01*
X329183866Y-82493691D01*
X329164700Y-82724999D01*
X328015300Y-82724999D01*
X327996134Y-82493695D01*
X327996133Y-82493691D01*
X327996132Y-82493685D01*
X327939157Y-82268700D01*
X327939155Y-82268696D01*
X327845924Y-82056151D01*
X327718981Y-81861850D01*
X327718980Y-81861849D01*
X327718979Y-81861847D01*
X327561784Y-81691087D01*
X327378626Y-81548530D01*
X327378625Y-81548529D01*
X327174502Y-81438063D01*
X327174500Y-81438062D01*
X326954985Y-81362703D01*
X326954978Y-81362701D01*
X326857000Y-81346352D01*
X326726049Y-81324500D01*
X326493951Y-81324500D01*
X326379383Y-81343618D01*
X326265021Y-81362701D01*
X326265014Y-81362703D01*
X326045499Y-81438062D01*
X326045497Y-81438063D01*
X325841374Y-81548529D01*
X325841373Y-81548530D01*
X325658213Y-81691089D01*
X325501018Y-81861850D01*
X325374075Y-82056151D01*
X325280844Y-82268696D01*
X325280842Y-82268700D01*
X325223867Y-82493685D01*
X325223866Y-82493691D01*
X325204700Y-82725000D01*
X324055300Y-82725000D01*
X324036134Y-82493695D01*
X324036133Y-82493691D01*
X324036132Y-82493685D01*
X323979157Y-82268700D01*
X323979155Y-82268696D01*
X323885924Y-82056151D01*
X323758981Y-81861850D01*
X323758980Y-81861849D01*
X323758979Y-81861847D01*
X323601784Y-81691087D01*
X323418626Y-81548530D01*
X323418625Y-81548529D01*
X323214502Y-81438063D01*
X323214500Y-81438062D01*
X322994985Y-81362703D01*
X322994978Y-81362701D01*
X322897000Y-81346352D01*
X322766049Y-81324500D01*
X322533951Y-81324500D01*
X322419383Y-81343618D01*
X322305021Y-81362701D01*
X322305014Y-81362703D01*
X322085499Y-81438062D01*
X322085497Y-81438063D01*
X321881374Y-81548529D01*
X321881373Y-81548530D01*
X321698213Y-81691089D01*
X321541018Y-81861850D01*
X321414075Y-82056151D01*
X321320844Y-82268696D01*
X321320842Y-82268700D01*
X321263867Y-82493685D01*
X321263866Y-82493691D01*
X321244700Y-82725000D01*
X320095300Y-82725000D01*
X320076134Y-82493695D01*
X320076133Y-82493691D01*
X320076132Y-82493685D01*
X320019157Y-82268700D01*
X320019155Y-82268696D01*
X319925924Y-82056151D01*
X319798981Y-81861850D01*
X319798980Y-81861849D01*
X319798979Y-81861847D01*
X319641784Y-81691087D01*
X319458626Y-81548530D01*
X319458625Y-81548529D01*
X319254502Y-81438063D01*
X319254500Y-81438062D01*
X319034985Y-81362703D01*
X319034978Y-81362701D01*
X318937000Y-81346352D01*
X318806049Y-81324500D01*
X318573951Y-81324500D01*
X318459383Y-81343618D01*
X318345021Y-81362701D01*
X318345014Y-81362703D01*
X318125499Y-81438062D01*
X318125497Y-81438063D01*
X317921374Y-81548529D01*
X317921373Y-81548530D01*
X317738213Y-81691089D01*
X317581018Y-81861850D01*
X317454075Y-82056151D01*
X317360844Y-82268696D01*
X317360842Y-82268700D01*
X317303867Y-82493685D01*
X317303866Y-82493691D01*
X317284700Y-82724999D01*
X316135300Y-82724999D01*
X316116134Y-82493695D01*
X316116133Y-82493691D01*
X316116132Y-82493685D01*
X316059157Y-82268700D01*
X316059155Y-82268696D01*
X315965924Y-82056151D01*
X315838981Y-81861850D01*
X315838980Y-81861849D01*
X315838979Y-81861847D01*
X315681784Y-81691087D01*
X315498626Y-81548530D01*
X315498625Y-81548529D01*
X315294502Y-81438063D01*
X315294500Y-81438062D01*
X315074985Y-81362703D01*
X315074978Y-81362701D01*
X314977000Y-81346352D01*
X314846049Y-81324500D01*
X314613951Y-81324500D01*
X314499383Y-81343618D01*
X314385021Y-81362701D01*
X314385014Y-81362703D01*
X314165499Y-81438062D01*
X314165497Y-81438063D01*
X313961374Y-81548529D01*
X313961373Y-81548530D01*
X313778213Y-81691089D01*
X313621018Y-81861850D01*
X313494075Y-82056151D01*
X313400844Y-82268696D01*
X313400842Y-82268700D01*
X313343867Y-82493685D01*
X313343866Y-82493691D01*
X313324700Y-82724999D01*
X312175300Y-82724999D01*
X312156134Y-82493695D01*
X312156133Y-82493691D01*
X312156132Y-82493685D01*
X312099157Y-82268700D01*
X312099155Y-82268696D01*
X312005924Y-82056151D01*
X311878981Y-81861850D01*
X311878980Y-81861849D01*
X311878979Y-81861847D01*
X311721784Y-81691087D01*
X311538626Y-81548530D01*
X311538625Y-81548529D01*
X311334502Y-81438063D01*
X311334500Y-81438062D01*
X311114985Y-81362703D01*
X311114978Y-81362701D01*
X311017000Y-81346352D01*
X310886049Y-81324500D01*
X310653951Y-81324500D01*
X310539383Y-81343618D01*
X310425021Y-81362701D01*
X310425014Y-81362703D01*
X310205499Y-81438062D01*
X310205497Y-81438063D01*
X310001374Y-81548529D01*
X310001373Y-81548530D01*
X309818213Y-81691089D01*
X309661018Y-81861850D01*
X309534075Y-82056151D01*
X309440844Y-82268696D01*
X309440842Y-82268700D01*
X309383867Y-82493685D01*
X309383866Y-82493691D01*
X309364700Y-82725000D01*
X308215300Y-82725000D01*
X308196134Y-82493695D01*
X308196133Y-82493691D01*
X308196132Y-82493685D01*
X308139157Y-82268700D01*
X308139155Y-82268696D01*
X308045924Y-82056151D01*
X307918981Y-81861850D01*
X307918980Y-81861849D01*
X307918979Y-81861847D01*
X307761784Y-81691087D01*
X307578626Y-81548530D01*
X307578625Y-81548529D01*
X307374502Y-81438063D01*
X307374500Y-81438062D01*
X307154985Y-81362703D01*
X307154978Y-81362701D01*
X307057000Y-81346352D01*
X306926049Y-81324500D01*
X306693951Y-81324500D01*
X306579383Y-81343618D01*
X306465021Y-81362701D01*
X306465014Y-81362703D01*
X306245499Y-81438062D01*
X306245497Y-81438063D01*
X306041374Y-81548529D01*
X306041373Y-81548530D01*
X305858213Y-81691089D01*
X305701018Y-81861850D01*
X305574075Y-82056151D01*
X305480844Y-82268696D01*
X305480842Y-82268700D01*
X305423867Y-82493685D01*
X305423866Y-82493691D01*
X305404700Y-82725000D01*
X304252814Y-82725000D01*
X304236134Y-82523695D01*
X304236133Y-82523691D01*
X304236132Y-82523685D01*
X304179157Y-82298700D01*
X304179155Y-82298696D01*
X304085924Y-82086151D01*
X303958981Y-81891850D01*
X303958980Y-81891849D01*
X303958979Y-81891847D01*
X303801784Y-81721087D01*
X303618626Y-81578530D01*
X303618625Y-81578529D01*
X303414502Y-81468063D01*
X303414500Y-81468062D01*
X303194985Y-81392703D01*
X303194978Y-81392701D01*
X303086232Y-81374555D01*
X302966049Y-81354500D01*
X302733951Y-81354500D01*
X302619383Y-81373618D01*
X302505021Y-81392701D01*
X302505014Y-81392703D01*
X302285499Y-81468062D01*
X302285497Y-81468063D01*
X302081374Y-81578529D01*
X302081373Y-81578530D01*
X301898213Y-81721089D01*
X301741018Y-81891850D01*
X301614075Y-82086151D01*
X301520844Y-82298696D01*
X301520842Y-82298700D01*
X301463867Y-82523685D01*
X301463866Y-82523691D01*
X301444700Y-82755000D01*
X300295300Y-82755000D01*
X300276134Y-82523695D01*
X300276133Y-82523691D01*
X300276132Y-82523685D01*
X300219157Y-82298700D01*
X300219155Y-82298696D01*
X300125924Y-82086151D01*
X299998981Y-81891850D01*
X299998980Y-81891849D01*
X299998979Y-81891847D01*
X299841784Y-81721087D01*
X299658626Y-81578530D01*
X299658625Y-81578529D01*
X299454502Y-81468063D01*
X299454500Y-81468062D01*
X299234985Y-81392703D01*
X299234978Y-81392701D01*
X299126232Y-81374555D01*
X299006049Y-81354500D01*
X298773951Y-81354500D01*
X298659383Y-81373618D01*
X298545021Y-81392701D01*
X298545014Y-81392703D01*
X298325499Y-81468062D01*
X298325497Y-81468063D01*
X298121374Y-81578529D01*
X298121373Y-81578530D01*
X297938213Y-81721089D01*
X297781018Y-81891850D01*
X297654075Y-82086151D01*
X297560844Y-82298696D01*
X297560842Y-82298700D01*
X297503867Y-82523685D01*
X297503866Y-82523691D01*
X297484700Y-82755000D01*
X296335300Y-82755000D01*
X296316134Y-82523695D01*
X296316133Y-82523691D01*
X296316132Y-82523685D01*
X296259157Y-82298700D01*
X296259155Y-82298696D01*
X296165924Y-82086151D01*
X296038981Y-81891850D01*
X296038980Y-81891849D01*
X296038979Y-81891847D01*
X295881784Y-81721087D01*
X295698626Y-81578530D01*
X295698625Y-81578529D01*
X295494502Y-81468063D01*
X295494500Y-81468062D01*
X295274985Y-81392703D01*
X295274978Y-81392701D01*
X295166232Y-81374555D01*
X295046049Y-81354500D01*
X294813951Y-81354500D01*
X294699383Y-81373618D01*
X294585021Y-81392701D01*
X294585014Y-81392703D01*
X294365499Y-81468062D01*
X294365497Y-81468063D01*
X294161374Y-81578529D01*
X294161373Y-81578530D01*
X293978213Y-81721089D01*
X293821018Y-81891850D01*
X293694075Y-82086151D01*
X293600844Y-82298696D01*
X293600842Y-82298700D01*
X293543867Y-82523685D01*
X293543866Y-82523691D01*
X293524700Y-82755000D01*
X292375300Y-82755000D01*
X292356134Y-82523695D01*
X292356133Y-82523691D01*
X292356132Y-82523685D01*
X292299157Y-82298700D01*
X292299155Y-82298696D01*
X292205924Y-82086151D01*
X292078981Y-81891850D01*
X292078980Y-81891849D01*
X292078979Y-81891847D01*
X291921784Y-81721087D01*
X291738626Y-81578530D01*
X291738625Y-81578529D01*
X291534502Y-81468063D01*
X291534500Y-81468062D01*
X291314985Y-81392703D01*
X291314978Y-81392701D01*
X291206232Y-81374555D01*
X291086049Y-81354500D01*
X290853951Y-81354500D01*
X290739383Y-81373618D01*
X290625021Y-81392701D01*
X290625014Y-81392703D01*
X290405499Y-81468062D01*
X290405497Y-81468063D01*
X290201374Y-81578529D01*
X290201373Y-81578530D01*
X290018213Y-81721089D01*
X289861018Y-81891850D01*
X289734075Y-82086151D01*
X289640844Y-82298696D01*
X289640842Y-82298700D01*
X289583867Y-82523685D01*
X289583866Y-82523691D01*
X289564700Y-82755000D01*
X288415300Y-82755000D01*
X288396134Y-82523695D01*
X288396133Y-82523691D01*
X288396132Y-82523685D01*
X288339157Y-82298700D01*
X288339155Y-82298696D01*
X288245924Y-82086151D01*
X288118981Y-81891850D01*
X288118980Y-81891849D01*
X288118979Y-81891847D01*
X287961784Y-81721087D01*
X287778626Y-81578530D01*
X287778625Y-81578529D01*
X287574502Y-81468063D01*
X287574500Y-81468062D01*
X287354985Y-81392703D01*
X287354978Y-81392701D01*
X287246232Y-81374555D01*
X287126049Y-81354500D01*
X286893951Y-81354500D01*
X286779383Y-81373618D01*
X286665021Y-81392701D01*
X286665014Y-81392703D01*
X286445499Y-81468062D01*
X286445497Y-81468063D01*
X286241374Y-81578529D01*
X286241373Y-81578530D01*
X286058213Y-81721089D01*
X285901018Y-81891850D01*
X285774075Y-82086151D01*
X285680844Y-82298696D01*
X285680842Y-82298700D01*
X285623867Y-82523685D01*
X285623866Y-82523691D01*
X285604700Y-82755000D01*
X284455300Y-82755000D01*
X284436134Y-82523695D01*
X284436133Y-82523691D01*
X284436132Y-82523685D01*
X284379157Y-82298700D01*
X284379155Y-82298696D01*
X284285924Y-82086151D01*
X284158981Y-81891850D01*
X284158980Y-81891849D01*
X284158979Y-81891847D01*
X284001784Y-81721087D01*
X283818626Y-81578530D01*
X283818625Y-81578529D01*
X283614502Y-81468063D01*
X283614500Y-81468062D01*
X283394985Y-81392703D01*
X283394978Y-81392701D01*
X283286232Y-81374555D01*
X283166049Y-81354500D01*
X282933951Y-81354500D01*
X282819383Y-81373618D01*
X282705021Y-81392701D01*
X282705014Y-81392703D01*
X282485499Y-81468062D01*
X282485497Y-81468063D01*
X282281374Y-81578529D01*
X282281373Y-81578530D01*
X282098213Y-81721089D01*
X281941018Y-81891850D01*
X281814075Y-82086151D01*
X281720844Y-82298696D01*
X281720842Y-82298700D01*
X281663867Y-82523685D01*
X281663866Y-82523691D01*
X281644700Y-82755000D01*
X280495300Y-82755000D01*
X280476134Y-82523695D01*
X280476133Y-82523691D01*
X280476132Y-82523685D01*
X280419157Y-82298700D01*
X280419155Y-82298696D01*
X280325924Y-82086151D01*
X280198981Y-81891850D01*
X280198980Y-81891849D01*
X280198979Y-81891847D01*
X280041784Y-81721087D01*
X279858626Y-81578530D01*
X279858625Y-81578529D01*
X279654502Y-81468063D01*
X279654500Y-81468062D01*
X279434985Y-81392703D01*
X279434978Y-81392701D01*
X279326232Y-81374555D01*
X279206049Y-81354500D01*
X278973951Y-81354500D01*
X278859383Y-81373618D01*
X278745021Y-81392701D01*
X278745014Y-81392703D01*
X278525499Y-81468062D01*
X278525497Y-81468063D01*
X278321374Y-81578529D01*
X278321373Y-81578530D01*
X278138213Y-81721089D01*
X277981018Y-81891850D01*
X277854075Y-82086151D01*
X277760844Y-82298696D01*
X277760842Y-82298700D01*
X277703867Y-82523685D01*
X277703866Y-82523691D01*
X277684700Y-82755000D01*
X276535300Y-82755000D01*
X276516134Y-82523695D01*
X276516133Y-82523691D01*
X276516132Y-82523685D01*
X276459157Y-82298700D01*
X276459155Y-82298696D01*
X276365924Y-82086151D01*
X276238981Y-81891850D01*
X276238980Y-81891849D01*
X276238979Y-81891847D01*
X276081784Y-81721087D01*
X275898626Y-81578530D01*
X275898625Y-81578529D01*
X275694502Y-81468063D01*
X275694500Y-81468062D01*
X275474985Y-81392703D01*
X275474978Y-81392701D01*
X275366232Y-81374555D01*
X275246049Y-81354500D01*
X275013951Y-81354500D01*
X274899383Y-81373618D01*
X274785021Y-81392701D01*
X274785014Y-81392703D01*
X274565499Y-81468062D01*
X274565497Y-81468063D01*
X274361374Y-81578529D01*
X274361373Y-81578530D01*
X274178213Y-81721089D01*
X274021018Y-81891850D01*
X273894075Y-82086151D01*
X273800844Y-82298696D01*
X273800842Y-82298700D01*
X273743867Y-82523685D01*
X273743866Y-82523691D01*
X273724700Y-82755000D01*
X272575300Y-82755000D01*
X272556134Y-82523695D01*
X272556133Y-82523691D01*
X272556132Y-82523685D01*
X272499157Y-82298700D01*
X272499155Y-82298696D01*
X272405924Y-82086151D01*
X272278981Y-81891850D01*
X272278980Y-81891849D01*
X272278979Y-81891847D01*
X272121784Y-81721087D01*
X271938626Y-81578530D01*
X271938625Y-81578529D01*
X271734502Y-81468063D01*
X271734500Y-81468062D01*
X271514985Y-81392703D01*
X271514978Y-81392701D01*
X271406232Y-81374555D01*
X271286049Y-81354500D01*
X271053951Y-81354500D01*
X270939383Y-81373618D01*
X270825021Y-81392701D01*
X270825014Y-81392703D01*
X270605499Y-81468062D01*
X270605497Y-81468063D01*
X270401374Y-81578529D01*
X270401373Y-81578530D01*
X270218213Y-81721089D01*
X270061018Y-81891850D01*
X269934075Y-82086151D01*
X269840844Y-82298696D01*
X269840842Y-82298700D01*
X269783867Y-82523685D01*
X269783866Y-82523691D01*
X269764700Y-82755000D01*
X267815177Y-82755000D01*
X267815177Y-82754998D01*
X267800491Y-82643446D01*
X267811430Y-82573297D01*
X267858559Y-82520199D01*
X267925413Y-82501000D01*
X268618000Y-82501000D01*
X268618000Y-81806414D01*
X268617999Y-81806402D01*
X268611494Y-81745906D01*
X268560444Y-81609035D01*
X268560444Y-81609034D01*
X268472904Y-81492095D01*
X268355965Y-81404555D01*
X268219093Y-81353505D01*
X268158597Y-81347000D01*
X267464000Y-81347000D01*
X267463999Y-82039587D01*
X267443997Y-82107708D01*
X267390341Y-82154201D01*
X267321554Y-82164509D01*
X267249327Y-82155000D01*
X267249323Y-82155000D01*
X267170677Y-82155000D01*
X267170672Y-82155000D01*
X267098444Y-82164509D01*
X267028295Y-82153569D01*
X266975197Y-82106440D01*
X266955999Y-82039587D01*
X266956000Y-81347000D01*
X266261402Y-81347000D01*
X266200906Y-81353505D01*
X266064035Y-81404555D01*
X266064034Y-81404555D01*
X265947095Y-81492095D01*
X265859555Y-81609034D01*
X265859555Y-81609035D01*
X265808505Y-81745906D01*
X265802000Y-81806402D01*
X265802000Y-82501000D01*
X266494587Y-82501000D01*
X266562708Y-82521002D01*
X266609201Y-82574658D01*
X266619509Y-82643446D01*
X266604823Y-82754998D01*
X266604823Y-82755001D01*
X266619509Y-82866554D01*
X266608570Y-82936703D01*
X266561441Y-82989801D01*
X266494587Y-83009000D01*
X265802000Y-83009000D01*
X265802000Y-83703597D01*
X264657999Y-83703597D01*
X264658000Y-83703585D01*
X264658000Y-83009000D01*
X263965413Y-83009000D01*
X263897292Y-82988998D01*
X263850799Y-82935342D01*
X263840491Y-82866554D01*
X263855177Y-82755001D01*
X263855177Y-82754998D01*
X263840491Y-82643446D01*
X263851430Y-82573297D01*
X263898559Y-82520199D01*
X263965413Y-82501000D01*
X264658000Y-82501000D01*
X264658000Y-81806414D01*
X264657999Y-81806402D01*
X264651494Y-81745906D01*
X264600444Y-81609035D01*
X264600444Y-81609034D01*
X264512904Y-81492095D01*
X264395965Y-81404555D01*
X264259093Y-81353505D01*
X264198597Y-81347000D01*
X263504000Y-81347000D01*
X263504000Y-82039587D01*
X263483998Y-82107708D01*
X263430342Y-82154201D01*
X263361555Y-82164509D01*
X263289327Y-82155000D01*
X263289323Y-82155000D01*
X263210677Y-82155000D01*
X263210672Y-82155000D01*
X263138445Y-82164509D01*
X263068296Y-82153569D01*
X263015198Y-82106441D01*
X262996000Y-82039587D01*
X262996000Y-81347000D01*
X262301402Y-81347000D01*
X262240906Y-81353505D01*
X262104035Y-81404555D01*
X262104034Y-81404555D01*
X261987095Y-81492095D01*
X261899555Y-81609034D01*
X261899555Y-81609035D01*
X261848505Y-81745906D01*
X261842000Y-81806402D01*
X261842000Y-82501000D01*
X262534587Y-82501000D01*
X262602708Y-82521002D01*
X262649201Y-82574658D01*
X262659509Y-82643446D01*
X262644823Y-82754998D01*
X262644823Y-82755001D01*
X262659509Y-82866554D01*
X262648570Y-82936703D01*
X262601441Y-82989801D01*
X262534587Y-83009000D01*
X261842000Y-83009000D01*
X261842000Y-83703597D01*
X245000500Y-83703597D01*
X245000500Y-80326500D01*
X245020502Y-80258379D01*
X245074158Y-80211886D01*
X245126500Y-80200500D01*
X381873500Y-80200500D01*
X381941621Y-80220502D01*
G37*
%TD.AperFunction*%
%TD*%
D19*
X15630000Y-102730000D02*
X15630000Y-224500000D01*
X382000000Y-102730000D02*
X382000000Y-80200000D01*
X15630000Y-102730000D02*
X245000000Y-102730000D01*
X245000000Y-80200000D02*
X382000000Y-80200000D01*
X435460000Y-102730000D02*
X382000000Y-102730000D01*
X245000000Y-102730000D02*
X245000000Y-80200000D01*
X435460000Y-102730000D02*
X435460000Y-224500000D01*
X310010000Y-97500000D02*
X323500000Y-97500000D01*
X323500000Y-103000000D01*
X310010000Y-103000000D01*
X310010000Y-97500000D01*
X15630000Y-224500000D02*
X435460000Y-224500000D01*
M02*
